<svg xmlns="http://www.w3.org/2000/svg" width="112" height="35" fill="none"><path fill="#fff" d="M111.003 29.288c0 2.817-2.308 4.71-5.749 4.71H7.002c-3.31 0-6.005-2.36-6.005-5.268V6.27C.997 3.365 3.692 1 7.002 1h98.252c3.213 0 5.749 2.313 5.749 5.269v23.018zM105.254 0H7.002C3.141 0 0 2.812 0 6.27v22.46C0 32.188 3.138 35 7.002 35h98.252c4.034 0 6.746-2.298 6.746-5.712V6.268C112.014 2.753 109.036 0 105.254 0z"/><path fill="#fff" d="M97.359 18.703h1.945c.714 1.711 1.42 3.425 2.12 5.142.653-1.714 1.318-3.426 1.972-5.14h2.01c-1.57 3.63-3.145 7.256-4.727 10.886h-1.893c.579-1.23 1.145-2.463 1.728-3.693-1.048-2.397-2.108-4.79-3.155-7.188v-.008zM68.764 22.4c1.123-.458 2.234-.931 3.356-1.39a1.587 1.587 0 00-1.827-.695 2.146 2.146 0 00-1.529 2.085zm-.476-2.71a3.493 3.493 0 013.87-.597c.98.502 1.608 1.488 1.924 2.519-1.674.696-3.346 1.392-5.022 2.085.258.5.71.87 1.248 1.028a2.187 2.187 0 002.41-.98c.44.291.88.582 1.316.883a3.884 3.884 0 01-1.849 1.462 3.756 3.756 0 01-3.864-.766c-1.548-1.438-1.526-4.168-.031-5.637l-.002.002zm-8.783.603c-1.16.167-1.92 1.394-1.772 2.514.073 1.188 1.247 2.223 2.44 1.952 1.149-.23 1.78-1.528 1.575-2.621-.114-1.077-1.128-2.046-2.243-1.845zm-1.895-.87c1.159-.888 2.979-.931 4.036.15v-.596h1.606v6.926c0 1.133-.365 2.354-1.287 3.072-1.398 1.057-3.593.963-4.822-.308a4.393 4.393 0 01-.837-1.22c.486-.213.98-.416 1.473-.618.184.381.45.713.782.975.837.635 2.226.451 2.778-.475.35-.553.321-1.232.324-1.857a2.799 2.799 0 01-2.376.824 3.734 3.734 0 01-3.054-2.514 3.87 3.87 0 011.396-4.362l-.019.003zm-6.79.928c-1.17.328-1.783 1.71-1.437 2.837.269 1.074 1.435 1.879 2.52 1.532 1.168-.269 1.83-1.627 1.53-2.754-.21-1.15-1.478-1.99-2.61-1.61l-.002-.005zm-.246-1.53a3.91 3.91 0 013.554 1.033c1.428 1.423 1.41 4.025-.07 5.39-1.498 1.515-4.256 1.382-5.596-.27-1.213-1.432-1.138-3.794.208-5.117a3.638 3.638 0 011.901-1.028l.003-.008zm-8.002 1.542a2.309 2.309 0 00.465 4.413c1.302.14 2.434-1.15 2.27-2.415 0-1.34-1.438-2.485-2.732-1.99l-.003-.008zm-.147-1.554a3.876 3.876 0 013.75 1.292c1.273 1.528 1.072 4.064-.491 5.32a3.804 3.804 0 01-4.74.165 3.822 3.822 0 01-1.227-4.59 3.702 3.702 0 012.713-2.187h-.005zm49.562 4.102c-.554.376-.556 1.312.085 1.61 1.217.677 2.778-.308 2.947-1.61-.931-.48-2.144-.589-3.046.025l.014-.025zm-2.008-2.86c.922-1.88 3.506-2.262 5.229-1.327a3.022 3.022 0 011.565 2.597c.02 1.593 0 3.188 0 4.779h-1.756v-.931c-1.142 1.803-4.251 1.433-5.057-.497a2.456 2.456 0 011.035-3.063 4.39 4.39 0 014.05-.16c-.052-1.721-2.724-2.148-3.481-.7-.535-.238-1.086-.432-1.607-.698h.022zM86.766 26.1V15.14h1.786V26.1h-1.786zm-7.031-9.306v3.49c.776 0 1.555.026 2.332-.015a1.803 1.803 0 001.607-1.61 1.785 1.785 0 00-1.607-1.833c-.781-.034-1.568 0-2.35 0l.018-.032zm-1.716-1.682h3.801c.91-.003 1.79.315 2.49.9a3.348 3.348 0 01-.641 5.483c-1.203.672-2.62.413-3.932.464v4.11h-1.718V15.106v.005zm-13.462 0h1.684V26.14h-1.684V15.11zm-36.664 2.912a5.949 5.949 0 014.822-3.467 5.646 5.646 0 014.554 1.59c-.383.383-.775.759-1.13 1.164a4.177 4.177 0 00-3.122-1.142 4.078 4.078 0 00-2.99 1.61 4.338 4.338 0 00-.832 3.258 4.205 4.205 0 002.41 3.237c1.536.7 3.546.373 4.667-.931a3.72 3.72 0 00.757-1.83c-1.26-.037-2.524 0-3.784-.018v-1.65h5.357a5.969 5.969 0 01-.743 4.1 5.149 5.149 0 01-3.712 2.269 5.952 5.952 0 01-3.576-.609 5.833 5.833 0 01-2.678-7.572M22.106 21.098l-3.557 1.95-2.141-2.149.196-.196 2.018-2.024 3.481 1.91c.172.095.25.196.25.27 0 .072-.078.145-.25.234l.003.005zM9.07 28.236l6.766-6.777.169.17 1.817 1.816-8.752 4.79zm-1.875.742a.42.42 0 01-.225-.347V13.066a.432.432 0 01.16-.315l8.135 8.153-8.07 8.074zm9.272-11.48l1.41.773-2.049 2.056-6.99-7.004 7.63 4.175zm6.013 2.383l-3.75-2.056-10.543-5.773a1.646 1.646 0 00-.851-.223.956.956 0 00-.22.025c-.02 0-.02.026-.034.031-.53.143-.9.618-.91 1.169v15.565a1.23 1.23 0 001.05 1.198c.022.01.043.017.068.024h.048c.315.002.624-.082.895-.245l10.446-5.717 3.815-2.09c.402-.148.668-.53.668-.96 0-.43-.266-.812-.668-.96l-.014.012zM31.068 5a3.08 3.08 0 00-2.115.772v.003c-.894.758-1.133 2.05-.826 3.138.188.604.568 1.13 1.084 1.502a2.974 2.974 0 001.776.56c.538.028 1.072-.1 1.537-.37a2.74 2.74 0 001.078-1.146 3.44 3.44 0 00.217-1.713h-2.832V8.5h2.1c-.119 1.453-1.966 2.177-3.16 1.453-1.31-.683-1.534-2.69-.41-3.64a2.22 2.22 0 013.087.091l.538-.533A3.077 3.077 0 0031.069 5zM38.079 5.132h-3.405V10.857h3.405v-.752h-2.643V8.358H37.8v-.715h-2.364V5.859h2.643v-.727zM42.635 5.14h-3.98l.012.007v.712h1.604v4.998h.76V5.86h1.604v-.72zM45.921 5.147h-.802v5.713h.802V5.147zM50.545 5.132h-3.981l.015.012v.715h1.602v4.998h.762V5.86h1.602v-.728zM57.75 5.793c-.793-.795-2.06-.959-3.099-.607v.006c-1.843.631-2.492 3.148-1.31 4.643.955 1.365 3.138 1.559 4.363.43 1.308-1.103 1.323-3.341.046-4.472zM60.482 5.162h-.92l-.011-.012v5.716h.762c-.03-1.54.067-3.09-.058-4.627 1.014 1.522 1.947 3.093 2.943 4.63H64V5.156h-.763v4.37l-2.755-4.364z"/><circle cx="55.68" cy="8" r="2.233" fill="#1D1D1D"/></svg>