<svg xmlns="http://www.w3.org/2000/svg" width="105" height="35" fill="none"><g clip-path="url(#clip0)"><path fill="#1D1D1D" d="M103.862 26.775v1.75c0 .525-.087 1.05-.175 1.663a7.359 7.359 0 01-.437 1.487c-.263.437-.525.875-.875 1.225-.35.35-.788.7-1.225.875-.438.263-.875.35-1.488.438-.525.087-1.137.087-1.662.175H6.475c-.525 0-1.05 0-1.663-.175a8.6 8.6 0 01-1.4-.438c-.437-.262-.875-.525-1.225-.875-.35-.35-.7-.788-.875-1.225-.262-.438-.35-.875-.437-1.488C.787 29.576.7 28.962.7 28.526v-21-.788c0-.437 0-1.05.175-1.662.087-.525.262-1.05.437-1.488.263-.437.525-.875.875-1.225.35-.35.788-.7 1.225-.875.438-.262.963-.35 1.488-.437C5.512.962 6.125.875 6.562.875h91.525c.438 0 1.05 0 1.663.175.525.087.962.262 1.487.438.438.262.875.525 1.225.874.35.35.7.788.875 1.225.263.438.35.963.438 1.4.087.526.175 1.138.175 1.663v20.125h-.088z"/><path fill="#fff" d="M104.65 7.525v-.788c0-.612-.087-1.137-.175-1.75a5.253 5.253 0 00-.525-1.662c-.262-.525-.612-.963-1.05-1.4-.437-.438-.875-.788-1.4-1.05A5.279 5.279 0 0099.838.35C99.225.262 98.7.175 98.088.175H6.475c-.612 0-1.137.087-1.75.175a6.1 6.1 0 00-1.662.525c-.525.262-.963.612-1.4 1.05-.438.35-.788.875-1.05 1.4a5.279 5.279 0 00-.525 1.662C0 5.6-.087 6.125-.087 6.737v21.788c0 .612.087 1.137.175 1.75.087.612.262 1.137.525 1.662.262.525.612.963 1.05 1.4.437.438.875.788 1.4 1.05.525.263 1.05.438 1.662.525.613.088 1.138.175 1.75.175H98c.613 0 1.138-.087 1.75-.175a5.278 5.278 0 001.663-.525c.525-.262.962-.612 1.4-1.05.437-.437.787-.875 1.05-1.4.262-.525.437-1.05.525-1.662.087-.613.175-1.138.175-1.75v-.788-.962l.087-17.21v-2.04zm-.787 19.25v1.75c0 .525-.088 1.05-.175 1.662a7.424 7.424 0 01-.438 1.488c-.262.437-.525.875-.875 1.225-.35.35-.787.7-1.225.875-.437.262-.875.35-1.487.437-.525.088-1.138.088-1.663.175H6.475c-.525 0-1.05 0-1.662-.175a8.6 8.6 0 01-1.4-.437c-.438-.263-.875-.525-1.225-.875-.35-.35-.7-.788-.875-1.225-.263-.438-.35-.875-.438-1.488C.788 29.575.7 28.962.7 28.525v-21-.788c0-.437 0-1.05.175-1.662.088-.525.263-1.05.438-1.488.262-.437.525-.875.875-1.225.35-.35.787-.7 1.225-.875.437-.262.962-.35 1.487-.437C5.513.962 6.125.875 6.563.875h91.525c.437 0 1.05 0 1.662.175.525.087.963.262 1.488.437.437.263.875.525 1.225.875.35.35.7.788.875 1.225.262.438.35.963.437 1.4.088.525.175 1.138.175 1.663v20.125h-.087z"/><path fill="#fff" d="M21.613 17.937c0-2.45 2.012-3.587 2.1-3.675-1.138-1.662-2.888-1.837-3.5-1.925-1.488-.175-2.888.875-3.675.875-.788 0-1.925-.875-3.15-.875-1.575 0-3.063.963-3.938 2.363-1.663 2.887-.438 7.262 1.225 9.625.787 1.137 1.75 2.45 2.975 2.45 1.225-.088 1.662-.788 3.15-.788s1.837.788 3.15.788 2.1-1.138 2.887-2.363C23.8 23.1 24.15 21.787 24.15 21.7c0 .087-2.537-.875-2.537-3.763zM19.162 10.85c.613-.787 1.138-1.925.963-3.063-.963 0-2.1.613-2.8 1.488-.613.7-1.138 1.838-.963 2.975 1.05 0 2.188-.613 2.8-1.4zM36.925 23.888h-4.112l-.963 2.975H30.1l3.938-10.85h1.837l3.938 10.85h-1.75l-1.138-2.975zm-3.675-1.313h3.325L35 17.85h-.087l-1.663 4.725zM48.212 22.837c0 2.45-1.312 4.026-3.325 4.026-1.137 0-2.012-.526-2.45-1.4V29.4h-1.662V18.9h1.575v1.313c.437-.876 1.4-1.4 2.537-1.4 2.013 0 3.325 1.575 3.325 4.024zm-1.662 0c0-1.575-.788-2.625-2.1-2.625-1.225 0-2.1 1.05-2.1 2.625 0 1.576.875 2.625 2.1 2.625 1.225.088 2.1-.962 2.1-2.625zM56.875 22.837c0 2.45-1.313 4.026-3.325 4.026-1.137 0-2.012-.526-2.45-1.4V29.4h-1.663V18.9h1.576v1.313c.437-.876 1.4-1.4 2.537-1.4 2.013 0 3.325 1.575 3.325 4.024zm-1.663 0c0-1.575-.787-2.625-2.1-2.625-1.224 0-2.1 1.05-2.1 2.625 0 1.576.876 2.625 2.1 2.625 1.313.088 2.1-.962 2.1-2.625zM62.65 23.8c.088 1.05 1.138 1.75 2.625 1.75 1.4 0 2.363-.7 2.363-1.663 0-.875-.613-1.312-2.013-1.662l-1.4-.35c-2.012-.525-2.887-1.4-2.887-2.887 0-1.838 1.662-3.15 3.937-3.15s3.85 1.312 3.938 3.15H67.55c-.087-1.05-.962-1.75-2.275-1.75-1.312 0-2.275.612-2.275 1.575 0 .787.613 1.225 2.013 1.575l1.225.262c2.187.525 3.15 1.4 3.15 2.975 0 2.012-1.663 3.325-4.2 3.325-2.45 0-4.025-1.225-4.113-3.238h1.575v.088zM72.888 17.063V18.9h1.487v1.313h-1.487v4.374c0 .7.262.963.962.963h.525v1.313c-.175.087-.525.087-.875.087-1.575 0-2.187-.613-2.187-2.1V20.3h-1.138v-1.313h1.138V17.15h1.575v-.087zM75.25 22.837c0-2.45 1.487-4.024 3.763-4.024 2.274 0 3.762 1.575 3.762 4.024 0 2.538-1.488 4.026-3.763 4.026-2.362.087-3.762-1.488-3.762-4.026zm5.862 0c0-1.75-.787-2.712-2.1-2.712-1.312 0-2.1 1.05-2.1 2.712 0 1.75.788 2.713 2.1 2.713 1.313 0 2.1-.963 2.1-2.713zM84.087 18.9h1.575v1.313c.263-.876.963-1.4 1.925-1.4.263 0 .438 0 .525.087v1.488c-.087-.088-.437-.088-.7-.088-1.05 0-1.662.7-1.662 1.837v4.726h-1.663V18.9zM95.637 24.5c-.175 1.4-1.662 2.45-3.412 2.45-2.275 0-3.763-1.575-3.763-4.025s1.4-4.113 3.675-4.113c2.188 0 3.588 1.488 3.588 3.938v.525h-5.6v.088c0 1.312.875 2.274 2.1 2.274.875 0 1.575-.437 1.837-1.137h1.575zm-5.512-2.363h3.937c0-1.224-.787-2.012-1.925-2.012-1.137 0-1.925.788-2.012 2.012zM33.163 7.437c1.575 0 2.45.963 2.45 2.625 0 1.663-.875 2.625-2.45 2.625h-1.925v-5.25h1.925zM32.025 11.9h.963c1.05 0 1.75-.7 1.75-1.838 0-1.137-.613-1.837-1.75-1.837h-.963V11.9zM36.488 10.675c0-1.313.7-2.013 1.837-2.013 1.138 0 1.838.788 1.838 2.013 0 1.313-.7 2.012-1.838 2.012-1.137.088-1.837-.7-1.837-2.012zm2.887 0c0-.875-.35-1.313-1.05-1.313-.7 0-1.05.525-1.05 1.313 0 .875.35 1.4 1.05 1.4.7 0 1.05-.525 1.05-1.4zM45.15 12.687h-.787L43.575 9.8h-.087l-.788 2.887h-.787L40.775 8.75h.788l.7 2.975h.087l.788-2.975h.787l.788 2.975h.087l.7-2.975h.788l-1.138 3.937zM47.163 8.75h.787v.612h.088c.175-.437.612-.7 1.137-.7.875 0 1.4.525 1.4 1.488v2.537h-.787v-2.362c0-.613-.263-.963-.875-.963-.613 0-.963.35-.963.963V12.6h-.787V8.75zM51.713 7.175h.787v5.512h-.787V7.175zM53.55 10.675c0-1.313.7-2.013 1.838-2.013 1.137 0 1.837.788 1.837 2.013 0 1.313-.7 2.012-1.837 2.012-1.05.088-1.838-.7-1.838-2.012zm2.975 0c0-.875-.35-1.313-1.05-1.313-.7 0-1.05.525-1.05 1.313 0 .875.35 1.4 1.05 1.4.613 0 1.05-.525 1.05-1.4zM58.1 11.55c0-.7.525-1.138 1.488-1.138l1.05-.087v-.35c0-.438-.263-.613-.788-.613-.437 0-.7.175-.787.438h-.788c.088-.7.7-1.138 1.575-1.138.963 0 1.575.525 1.575 1.313v2.713h-.787v-.526h-.088c-.262.438-.7.613-1.225.613-.612 0-1.225-.525-1.225-1.225zm2.538-.35v-.35l-.963.088c-.525 0-.787.262-.787.524 0 .35.35.526.7.526.612.087 1.05-.263 1.05-.788zM62.475 10.675c0-1.225.613-2.013 1.663-2.013.525 0 .962.263 1.225.7h.087V7.175h.788v5.512h-.788v-.612h-.087c-.263.437-.7.7-1.225.7-1.05 0-1.663-.788-1.663-2.1zm.788 0c0 .875.437 1.312 1.05 1.312.612 0 1.05-.525 1.05-1.312 0-.788-.438-1.313-1.05-1.313-.613 0-1.05.525-1.05 1.313zM69.388 10.675c0-1.313.7-2.013 1.837-2.013 1.138 0 1.838.788 1.838 2.013 0 1.313-.7 2.012-1.838 2.012-1.137.088-1.837-.7-1.837-2.012zm2.887 0c0-.875-.35-1.313-1.05-1.313-.7 0-1.05.525-1.05 1.313 0 .875.35 1.4 1.05 1.4.7 0 1.05-.525 1.05-1.4zM74.113 8.75h.787v.612h.088c.175-.437.612-.7 1.137-.7.875 0 1.4.525 1.4 1.488v2.537h-.787v-2.362c0-.613-.263-.963-.875-.963-.613 0-.963.35-.963.963V12.6h-.787V8.75zM81.813 7.787v.963h.875v.612h-.875v2.013c0 .438.175.613.525.613h.262v.612h-.437c-.875 0-1.225-.262-1.225-1.05V9.362h-.613V8.75h.613v-.963h.875zM83.738 7.175h.787v2.187h.088c.175-.437.612-.7 1.225-.7.875 0 1.4.525 1.4 1.488v2.537h-.788v-2.362c0-.613-.262-.963-.875-.963-.612 0-.962.438-.962.963V12.6h-.788V7.175h-.087zM91.7 11.637c-.175.7-.787 1.138-1.75 1.138-1.137 0-1.837-.787-1.837-2.013 0-1.225.7-2.1 1.837-2.1 1.138 0 1.75.788 1.75 2.013v.262h-2.8c0 .7.438 1.138 1.05 1.138.438 0 .788-.175.963-.438h.787zm-2.712-1.312H91c0-.613-.437-1.05-.962-1.05-.613.087-1.05.437-1.05 1.05z"/></g><defs><clipPath id="clip0"><path fill="#fff" d="M0 0h105v35H0z"/></clipPath></defs></svg>