<?xml version="1.0" encoding="utf-8"?>
<!-- Generator: Adobe Illustrator 24.1.1, SVG Export Plug-In . SVG Version: 6.00 Build 0)  -->
<svg version="1.1" id="_x3C_Layer_x3E_" xmlns="http://www.w3.org/2000/svg" xmlns:xlink="http://www.w3.org/1999/xlink" x="0px"
	 y="0px" viewBox="0 0 2760 1840" style="enable-background:new 0 0 2760 1840;" xml:space="preserve">
<style type="text/css">
	.st0{opacity:0.6;fill:#FFFFFF;}
	.st1{opacity:0.5;fill:#C7A58B;}
	.st2{fill:#FD8772;}
	.st3{fill:#CCD39C;}
	.st4{fill:#FF998A;}
	.st5{opacity:0.5;fill:#DD4E22;}
	.st6{fill:#FD5F25;}
	.st7{fill:#366F90;}
	.st8{fill:#FFFFFF;}
	.st9{fill:#FF9A86;}
	.st10{fill:#FF855F;}
	.st11{fill:#FF8C77;}
	.st12{fill:#EF8062;}
	.st13{fill:#D6654E;}
	.st14{opacity:0.5;fill:#FF886C;}
	.st15{fill:#F8D37A;}
	.st16{fill:#331832;}
	.st17{fill:#FFDF91;}
	.st18{fill:#FFE9BA;}
	.st19{fill:#418DB2;}
	.st20{fill:#FFB27D;}
	.st21{fill:#020202;}
	.st22{fill:#F29E69;}
	.st23{fill:#E9633E;}
	.st24{fill:#080435;}
	.st25{fill:#764678;}
	.st26{opacity:0.3;fill:#FFFFFF;}
	.st27{fill:#6DA49A;}
	.st28{fill:#DAEBE8;}
	.st29{fill:#E9FFFB;}
	.st30{fill:#E9845C;}
	.st31{fill:#F2A16E;}
	.st32{fill:#F7A776;}
	.st33{fill:#5C305D;}
	.st34{fill:#B8D5DC;}
	.st35{opacity:0.8;fill:#FFFFFF;}
	.st36{fill:#5193B4;}
	.st37{opacity:0.5;}
	.st38{fill:#EC865C;}
	.st39{fill:#FFBE59;}
	.st40{fill:#F6BB60;}
	.st41{fill:#EEA353;}
	.st42{opacity:0.3;fill:#FFDFA8;}
	.st43{fill:#FFD48E;}
	.st44{fill:#58A1C7;}
</style>
<g>
	<path class="st0" d="M1722.5,279.2c0,0-26-50-91.7-43.7s-57.9,56.3-89.2,51.6c-31.3-4.7-75.1,0-84.5,31.3
		c-9.4,31.3-51.6,14.1-53.2,40.7c-1.6,26.6,48.5,45.4,106.4,21.9c57.9-23.5,86.1,18.2,167.4,10.7c81.4-7.6,91.5-16.9,139.6-12.2
		c48.2,4.7,47-28.3,25.1-50.2C1820.6,307.4,1731.9,309.5,1722.5,279.2z"/>
	<ellipse class="st1" cx="1402.7" cy="1387.8" rx="1151.1" ry="229.9"/>
	<g>
		<g>
			<path class="st2" d="M1946.1,1258.6c-19.9-58.8,20.8-107,79.5-126.9c58.8-19.9,124.3-7.6,144.2,51.1
				c24.7,72.8-13.4,141.8-72.1,161.7C2038.9,1364.4,1970.8,1331.4,1946.1,1258.6z"/>
			<path class="st3" d="M2023.2,1135.2c0,0-42.8-35.8-62.5-16.7c-19.8,19.1,44.3,29.5,70.6,23.5c26.4-6,38.8-27.5,29.8-34.8
				s-21.6,18.1-21.6,18.1s-0.9-35-17.3-29.6S2023.2,1135.2,2023.2,1135.2z"/>
			<path class="st4" d="M2127.1,1155.8c0,0-34.7-29.2-50.8-16.5C2060.2,1152,2148.6,1169.8,2127.1,1155.8z"/>
		</g>
	</g>
	<g>
		<path class="st5" d="M929.8,774l-106.9-21.3c-20.3-4-33.6-24-29.6-44.3l0,0c4-20.3,24-33.6,44.3-29.6l106.9,21.3
			c20.3,4,33.6,24,29.6,44.3v0C970,764.7,950.1,778.1,929.8,774z"/>
		<g>
			<polygon class="st6" points="1822.3,1379.7 888.5,1379.7 842.9,629.8 1874.9,629.8 			"/>
			<path class="st7" d="M1868,629.8c0,11.6-25,22.5-68.6,31.8c-88.6,19-254.2,31.8-444,31.8c-189.7,0-355.3-12.8-444-31.8
				c-43.6-9.4-68.6-20.2-68.6-31.8c0-35.1,229.5-63.6,512.5-63.6S1868,594.6,1868,629.8z"/>
			<path class="st8" d="M1799.4,661.6c-88.6,19-254.2,31.8-444,31.8c-189.7,0-355.3-12.8-444-31.8c88.6-19,254.2-31.8,444-31.8
				C1545.1,629.8,1710.8,642.6,1799.4,661.6z"/>
			<g>
				<path class="st9" d="M1355.4,702.7c-137.3,0-266.4-6.6-363.6-18.7c-158.3-19.6-158.3-43.9-158.3-54.2s0-34.6,158.3-54.2
					c97.2-12.1,226.3-18.7,363.6-18.7s266.4,6.6,363.6,18.7c158.3,19.6,158.3,43.9,158.3,54.2s0,34.6-158.3,54.2
					C1621.8,696.1,1492.7,702.7,1355.4,702.7z M1355.4,575.5c-300.7,0-495.7,31.8-503.3,54.6c7.5,22.2,202.6,54,503.3,54
					c299.5,0,494.2-31.5,503.2-54.3C1849.6,607,1654.9,575.5,1355.4,575.5z"/>
			</g>
			<ellipse class="st6" cx="1355.4" cy="1379.7" rx="466.9" ry="57.9"/>
		</g>
		<g>
			<g>
				<path class="st6" d="M1872.4,869.8c-21.2,0-42.5-2.4-63.5-7.2l-121.2-27.6c-13.4-3.1-21.8-16.4-18.7-29.8
					c3-13.4,16.4-21.8,29.8-18.7l121.2,27.6c44.9,10.2,91.4,7.1,134.6-8.9c8.1-3,8.7-10.1,8.6-13c-0.1-2.9-1.3-9.9-9.7-12.2
					l-92.1-25.3c-13.2-3.6-21-17.3-17.4-30.6c3.6-13.2,17.3-21,30.6-17.4l92.1,25.3c26.8,7.4,45,30.1,46.2,57.9
					c1.2,27.8-14.8,52.1-40.9,61.8C1939.8,863.8,1906.2,869.8,1872.4,869.8z"/>
			</g>
			<g>
				<path class="st10" d="M1872.4,851.5c-21.1,0-42.3-2.4-63.2-7.1l-171.1-34.4c-13.5-2.7-22.2-15.8-19.5-29.3
					c2.7-13.5,15.8-22.2,29.3-19.5l171.5,34.4c0.2,0,0.4,0.1,0.6,0.1c44.9,10.2,91.4,7.1,134.6-8.9c8.1-3,8.7-10.1,8.6-13
					c-0.1-2.9-1.3-9.9-9.7-12.2l-92.1-25.3c-13.2-3.6-21-17.3-17.4-30.6c3.6-13.2,17.3-21,30.6-17.4l92.1,25.3
					c26.8,7.4,45,30.1,46.2,57.9c1.2,27.8-14.8,52.1-40.9,61.8C1939.8,845.5,1906.2,851.5,1872.4,851.5z"/>
			</g>
			<path class="st11" d="M2001,776.9c1.2-1.5,7.1-24.4-13-39c-20.1-14.6-36.8-3.6-28,0C1968.9,741.4,1990.3,790.1,2001,776.9z"/>
			<polygon class="st12" points="1872,671.5 1864.3,781.3 1823,762.7 1840.6,682.3 1868,671.5 			"/>
			<g>
				<path class="st13" d="M1674.6,786.8c8.7-7.9,22.1-7.7,33.3-6.9c9,0.6,17.7,3.9,26.7,5.1c7.2,1,14.5,2,21.7,3.1
					c27.7,4.2,55.4,8.3,83.1,12.5c7.7,1.2,15.3,2.3,23,3.5c3.1,0.5,4.4-4.2,1.3-4.7c-20.9-3.1-41.7-6.3-62.6-9.4
					c-21-3.2-42-6.9-63.1-9.4c-10.8-1.3-21.4-5.4-32.3-5.6c-12.3-0.3-24.9-0.3-34.5,8.4C1668.8,785.5,1672.2,788.9,1674.6,786.8
					L1674.6,786.8z"/>
			</g>
			<g>
				<path class="st13" d="M1868.6,689.1c-0.4,15.8-0.5,31.7-0.2,47.5c0.1,3.1,4.9,3.1,4.9,0c-0.3-15.8-0.2-31.7,0.2-47.5
					C1873.6,685.9,1868.7,685.9,1868.6,689.1L1868.6,689.1z"/>
			</g>
		</g>
		<path class="st14" d="M1421.3,792.1c0,0-0.3,4.8-0.9,13.5c-6,87.2-37.8,566.3-18.3,582.3c21.5,17.6,132.7,5.9,152.2,0
			s102.4-615.8,103.4-638c1.3-28-144.8,5.8-184.3,9.1C1458.4,760.3,1427.5,771.9,1421.3,792.1z"/>
		<path class="st5" d="M883.7,726.4c0,0,0.2,4.4,0.6,12.5c4.2,87.2,29.5,600.7,44.9,617.1c16.8,17.9,184.6,41.3,188.5,27.7
			c3.9-13.7,41-588.6,33.2-604.6c-7.8-15.9-108.2-12.7-176.7-34.7C905.5,722.4,882.1,693.9,883.7,726.4z"/>
	</g>
	<g>
		<path class="st15" d="M1267.7,666.9c-1.7,0-3.4-0.8-4.5-2.4L976.4,234.1c-1.6-2.5-1-5.8,1.5-7.4c2.4-1.6,5.8-1,7.4,1.5
			l286.8,430.5c1.6,2.5,1,5.8-1.5,7.4C1269.8,666.6,1268.7,666.9,1267.7,666.9z"/>
	</g>
	<g>
		<path class="st15" d="M1248.6,666.9c-1.7,0-3.3-0.8-4.3-2.2L942,252.4c-1.8-2.4-1.2-5.7,1.2-7.5c2.4-1.8,5.7-1.2,7.5,1.2
			l302.3,412.3c1.8,2.4,1.2,5.7-1.2,7.5C1250.8,666.6,1249.7,666.9,1248.6,666.9z"/>
	</g>
	<g>
		<path class="st15" d="M1233.2,674.8c-1.6,0-3.2-0.7-4.3-2.1L942.1,298.9c-1.8-2.4-1.4-5.7,1-7.5c2.3-1.8,5.7-1.4,7.5,1
			l286.9,373.8c1.8,2.4,1.4,5.7-1,7.5C1235.5,674.4,1234.3,674.8,1233.2,674.8z"/>
	</g>
	<g>
		<path class="st16" d="M2106.9,1299.3c0,0.1,0,0.3,0,0.4c-2,25.1-182.1,45.4-403.9,45.4c-221.8,0-401.9-20.3-403.9-45.4
			c0-0.1,0-0.3,0-0.4c0-0.2,0-0.4,0-0.7c3.1-25,182.7-45.2,403.9-45.2c221.2,0,400.8,20.2,403.9,45.2
			C2106.9,1298.9,2106.9,1299.1,2106.9,1299.3z"/>
		<path class="st16" d="M1298.9,1299.3c0-0.2,0-0.4,0-0.7c0,0.4,0,0.7,0,1.1C1299,1299.6,1298.9,1299.5,1298.9,1299.3z"/>
		<path class="st16" d="M2106.9,1299.3c0,0.1,0,0.3,0,0.4c0-0.4,0-0.7,0-1.1C2106.9,1298.9,2106.9,1299.1,2106.9,1299.3z"/>
		<ellipse class="st17" cx="1702.9" cy="1327.6" rx="105.4" ry="65"/>
		<ellipse class="st17" cx="1843.2" cy="1341.1" rx="105.4" ry="70"/>
		<ellipse class="st17" cx="1973.3" cy="1348.5" rx="74.2" ry="49.3"/>
		<ellipse class="st17" cx="1594.3" cy="1346" rx="105.4" ry="71"/>
		<ellipse class="st17" cx="1471.2" cy="1353.4" rx="93.3" ry="57.5"/>
		<g>
			<path class="st18" d="M1398.4,1338.5c26.6-34.5,75.2-32.1,112.1-18.6c5.9,2.2,8.5-7.3,2.6-9.4c-22.5-8.2-46.9-12.6-70.7-8.2
				c-20.7,3.8-39.5,14.5-52.4,31.2C1386.2,1338.5,1394.6,1343.4,1398.4,1338.5L1398.4,1338.5z"/>
		</g>
		<g>
			<path class="st18" d="M1413.4,1342.8c14.3-13.5,33.8-20.7,53.5-19.4c19.2,1.3,37,10.9,49.4,25.4c4.1,4.8,10.9-2.1,6.9-6.9
				c-14.1-16.5-34.6-26.9-56.3-28.3c-22.2-1.5-44.3,7.1-60.4,22.3C1401.9,1340.2,1408.8,1347.1,1413.4,1342.8L1413.4,1342.8z"/>
		</g>
		<g>
			<path class="st18" d="M1805.2,1347.8c-12.7-12.6-22.4-28.1-35.7-40.2c-11.3-10.2-25.1-17.4-39.8-21.1c-14.7-3.7-30.2-4-45.1-0.8
				c-15.8,3.4-29.6,11.2-42.4,21c-14.7,11.2-28.6,24.5-46,31.6c-5.7,2.4-3.2,11.8,2.6,9.4c28.9-11.9,48.3-39.4,77.9-49.7
				c27.7-9.6,60.8-4.7,83.5,14.4c14.6,12.3,24.6,28.9,38,42.3C1802.8,1359.1,1809.7,1352.2,1805.2,1347.8L1805.2,1347.8z"/>
		</g>
		<g>
			<path class="st18" d="M1788.8,1347.9c-6.5-3.6-12.7-7.9-18.2-12.9c-5.5-4.9-10-10.7-15.2-15.8c-10.5-10.3-25-15.7-39.4-17.9
				c-14.2-2.1-28.9-1-42.6,3.7c-12.9,4.4-24.5,11.5-35.6,19.3c-12.8,9-25.1,18.8-38.7,26.6c-5.5,3.1-0.5,11.5,4.9,8.4
				c28.7-16.4,53-43.8,87.1-48.6c17.5-2.5,38.2,0.5,52.7,11.3c7.1,5.2,12.2,12.7,18.6,18.7c6.5,6,13.7,11.2,21.4,15.5
				C1789.4,1359.4,1794.3,1351,1788.8,1347.9L1788.8,1347.9z"/>
		</g>
		<g>
			<path class="st18" d="M1538.4,1341.7c-9.8-9.1-11.5-24.4-2.3-34.7c8.8-9.9,25-13.9,37.4-16.4c5.1-1,14.3-4.2,17.2,2
				c2.5,5.4-0.7,11.1-3.7,15.6c-3.7,5.5-7.9,10.7-11.3,16.4c-3.7,6.2-6.9,12.8-9.6,19.5c-2.4,5.8,7,8.3,9.4,2.6
				c2.8-6.7,6.1-13.2,10-19.3c3.8-6,8.6-11.4,12.1-17.6c5-8.9,5.9-22.5-4.3-28.4c-5.7-3.3-12.7-1.8-18.8-0.7c-7.6,1.3-15,3.3-22.3,6
				c-12.1,4.5-23.8,10.7-29.2,23.1c-5.8,13.5-2.2,29,8.5,38.9C1536.1,1352.8,1543,1346,1538.4,1341.7L1538.4,1341.7z"/>
		</g>
		<g>
			<path class="st18" d="M1551.3,1339c-5.9-6-2.8-16.6-0.2-23.5c1.7-4.5,4.8-6.8,8.9-9c2.2-1.2,4.5-2.2,6.9-3.1
				c1.5-0.6,4.4-2.1,6.1-1.9c1.6,0.2,1.8,0.4,1.7,2.5c-0.1,2-1.2,3.9-2.1,5.5c-1.9,3.5-4.5,6.5-6.7,9.8c-4.7,7.2-7.9,15.3-9.6,23.7
				c-1.2,6.1,8.2,8.8,9.4,2.6c1.4-6.8,3.7-13.2,7.3-19.2c3-5,7-9.3,9.5-14.7c4.4-9.7,0.5-22.4-12.2-19.6c-11.3,2.5-23.9,8.6-28.2,20
				c-4,10.8-6.4,24.7,2.5,33.7C1548.8,1350.4,1555.7,1343.5,1551.3,1339L1551.3,1339z"/>
		</g>
		<g>
			<path class="st18" d="M1593.9,1342.8c10.4-14.9,20.5-31,35.9-41.4c14.6-9.9,31.6-17,48.5-21.6c17.3-4.7,35.5-6.3,53-2.3
				c17.2,3.9,34.5,10.6,48.7,21.2c14.9,11.2,26.7,26,38.3,40.4c3.9,4.9,10.8-2.1,6.9-6.9c-11.2-13.9-22.7-28-36.7-39.2
				c-14.8-11.7-32.2-19.1-50.3-23.9c-36.8-9.8-77.3,1.7-109.1,21.1c-19,11.6-31.1,29.7-43.6,47.6
				C1581.9,1343,1590.3,1347.9,1593.9,1342.8L1593.9,1342.8z"/>
		</g>
		<g>
			<path class="st18" d="M1773.5,1359.5c-6.2-4.4-12.9-8.5-18.5-13.6c-4.8-4.4-8.6-9.7-13.8-13.8c-10-7.9-23.1-13.2-35.7-15
				c-14-1.9-27.2,5.9-39.1,12.2c-13.2,7-25.8,14.9-38.5,22.8c-5.3,3.3-0.4,11.8,4.9,8.4c11.4-7.1,22.7-14.3,34.5-20.7
				c11.3-6.2,25.3-15.4,38.7-12.8c11.6,2.3,23.9,7.2,32.4,15.6c4.4,4.3,8.1,9.1,13,13c5.5,4.3,11.3,8.2,17,12.2
				C1773.7,1371.6,1778.6,1363.1,1773.5,1359.5L1773.5,1359.5z"/>
		</g>
		<g>
			<path class="st18" d="M1953.8,1337.5c-12.5-30.9-44.7-43.2-73.8-53.8c-8.1-2.9-16.2-5.5-24.8-6.5c-9-1-18.1-0.5-27.2-0.1
				c-17,0.8-33.9,2.4-49.7,9.2c-5.7,2.5-0.8,10.9,4.9,8.4c14.4-6.2,30.2-7.2,45.6-7.9c8.1-0.4,16.3-0.9,24.4-0.1
				c7.7,0.8,15.1,3.1,22.4,5.7c25.7,9.2,57.6,20,68.7,47.6C1946.8,1345.8,1956.2,1343.3,1953.8,1337.5L1953.8,1337.5z"/>
		</g>
		<g>
			<path class="st18" d="M1791.3,1304.3c45.7-2.8,91.5,8.4,130.7,32.1c5.4,3.3,10.3-5.2,4.9-8.4c-40.6-24.5-88.3-36.3-135.6-33.4
				C1785,1295,1785,1304.7,1791.3,1304.3L1791.3,1304.3z"/>
		</g>
		<g>
			<path class="st18" d="M1805.9,1318.5c30.4,3.8,60.2,12,88.3,24.2c5.7,2.5,10.7-5.9,4.9-8.4c-29.8-12.9-61-21.5-93.2-25.5
				C1799.7,1308,1799.7,1317.7,1805.9,1318.5L1805.9,1318.5z"/>
		</g>
		<g>
			<path class="st18" d="M1941,1314.1c26.5-1,52.6,3.7,77.2,13.7c5.8,2.4,8.3-7.1,2.6-9.4c-25.3-10.3-52.5-15.1-79.8-14.1
				C1934.8,1304.6,1934.7,1314.3,1941,1314.1L1941,1314.1z"/>
		</g>
		<path class="st7" d="M2106.9,1301.8c0,167-180.9,220.3-404,220.3c-223.1,0-404-51.4-404-220.3c0-0.7,0-1.4,0-2
			c2,25.1,182.1,45.4,403.9,45.4c221.8,0,401.9-20.3,403.9-45.4C2106.9,1300.4,2106.9,1301.1,2106.9,1301.8z"/>
		<path class="st19" d="M1896.1,1476.6c0,0,97.1,0,161.9-76.1c36.7-43,10.7-59.4-14.1-53.2c-28.4,7.1-51.6,32.4-78.2,60.6
			C1942.7,1432.4,1866.9,1475.6,1896.1,1476.6z"/>
		<g>
			<path class="st18" d="M1851.1,1345.8c11.6,3.7-2,28.1-5.1,34.3c-5.3,10.6-11.3,21.3-13.4,33.2c-2.3,13.2,1.6,24.8,4.9,37.4
				c3.6,13.7,2.6,27.4-4.4,39.9c-3.1,5.5,5.4,10.4,8.4,4.9c7.3-13,9.6-27.9,6.6-42.5c-1.6-7.8-4.7-15.3-6-23.2
				c-1.3-7.2-0.5-14.3,1.7-21.3c4.2-13.4,12.2-25.2,17.3-38.2c4.5-11.4,7.8-29.1-7.4-33.9
				C1847.7,1334.4,1845.1,1343.9,1851.1,1345.8L1851.1,1345.8z"/>
		</g>
		<path class="st2" d="M1821.1,1298.3l-2.6-2.6c-8.1-5.9-16.4-11.8-26.1-14.7c-7.6-2.3-15.7-2.4-23.3-4.7
			c-5.4-1.6-10.4-4.1-15.6-6.3c-22.9-9.3-48.4-9.8-73.1-8.7c-7.6,0.3-15.3,0.8-22.7,2.7c-7.1,1.8-13.9,4.9-20.6,7.9
			c-12.5,5.7-24.9,11.3-37.4,17c-6.3,2.9-13.2,6.3-14,14.1c-0.2,2.5,0.3,5,1.3,7.2c2.9,6.2,9,9.8,15.4,11.6c7,2.1,14.6,2.4,21.7,0.8
			c7-1.5,14.2-4.8,20.9-2.5c3.1,1.1,5.9,3.2,9.1,4c3.8,0.8,7.7-0.4,11.2-2c13.2-6,24.1-16.4,37.7-21.1c16.1-5.6,35-2.1,48,8.9
			c4,3.4,9.4,7.6,13.7,4.7c1.3-0.9,2.2-2.4,3.5-3.3c2.5-1.7,5.8-0.9,8.6-0.1c14.2,4.4,28.3,11.4,43,9.5c4.4-0.6,9.1-2.3,11.4-6.1
			c1.8-3,0.9-7.6-1.7-9.5C1826.6,1303,1823.7,1300.9,1821.1,1298.3z"/>
		<path class="st3" d="M1615.7,1315.6c3.7-3.6,16.9-10.5,20.5-6.7c3.6,3.7-3.7,16.7-7.4,20.3c-3.7,3.6-9.7,3.5-13.3-0.2
			C1611.9,1325.2,1612,1319.2,1615.7,1315.6z"/>
		<path class="st3" d="M1720.5,1290.8c-4.8-1.9-16.5-11.1-14.6-15.9c1.9-4.8,16.7-3.5,21.5-1.6c4.8,1.9,7.2,7.4,5.3,12.2
			C1730.8,1290.4,1725.3,1292.7,1720.5,1290.8z"/>
		<path class="st3" d="M1704.3,1263.2c-4.6,3.7-20.1,10.1-23.8,5.5c-3.7-4.6,5.8-18.4,10.4-22.1c4.6-3.7,11.3-3,15,1.6
			C1709.6,1252.8,1708.9,1259.5,1704.3,1263.2z"/>
		<path class="st3" d="M1771.5,1313.5c2.3-4.6,12.5-15.5,17.2-13.1c4.6,2.3,2,17-0.3,21.6c-2.3,4.6-8,6.5-12.7,4.2
			C1771.1,1323.8,1769.2,1318.2,1771.5,1313.5z"/>
		<path class="st3" d="M1662.7,1301.8c-2.5-3.4-6.5-14.8-3-17.3c3.4-2.5,13,4.9,15.5,8.4c2.5,3.4,1.7,8.2-1.7,10.7
			C1670,1306,1665.2,1305.2,1662.7,1301.8z"/>
	</g>
	<g>
		<g>
			<path class="st18" d="M1439.7,1024.7c0,18.2,7.1,35,10.4,52.7c1.6,8.5,2.3,17.5,0.1,26c-0.3,1.1-0.7,2.1-1,3.2
				c0-0.1-0.9,2.5-0.3,1.3c0.3-0.6,0.1-0.2,0,0.1c-0.7,1-1.7,1.9-2.5,2.8c-6.7,8.1-12.4,17.4-14.9,27.7c-1.5,6.2-1.8,12.7-0.3,18.9
				c1.7,7.4,6,14,8,21.4c3.9,14.1,3.9,31.5-10.4,39.7c-5.4,3.1-0.5,11.6,4.9,8.4c12-6.9,17.6-19.4,17.5-32.9c0-7.5-1.6-15.1-4-22.2
				c-2.5-7.3-7.1-14.1-7.3-22c-0.3-11.3,5.6-22.3,12.4-30.9c1.7-2.1,3.8-4,5-6.4c3.7-7.5,4.3-16.9,3.7-25.2
				c-1.4-21.3-11.7-41-11.7-62.5C1449.5,1018.4,1439.7,1018.4,1439.7,1024.7L1439.7,1024.7z"/>
		</g>
		<g>
			<path class="st18" d="M1449.6,1022.8c1.3,16.5,7.8,31.9,10.1,48.2c1.2,8.1,0.4,16.9-0.2,25.1c-1,12.3-3.3,23.9-9.9,34.5
				c-7.7,12.2-0.1,27.3,6,38.5c3.9,7.2,8.8,14.2,11,22.1c0.9,3.3,1.6,6.8,1.1,10.2c-0.1,0.8-0.4,1.5-0.6,2.3c-0.3,1,0.4-0.7,0,0.1
				c-3,5.5,5.4,10.4,8.4,4.9c5.3-9.6,0.4-22.5-4.1-31.3c-3.5-6.7-7.6-13.1-10.8-20c-2.6-5.5-5.9-12.9-3.8-19.1
				c0.9-2.7,2.9-4.8,4.3-7.3c1.6-3,2.9-6.2,3.9-9.5c2-6.2,3-12.7,3.8-19.2c1.1-8.8,1.6-18.2,1.2-27.1c-0.8-17.8-9.1-34.7-10.5-52.4
				C1458.8,1016.6,1449.1,1016.6,1449.6,1022.8L1449.6,1022.8z"/>
		</g>
		<g>
			<path class="st18" d="M1458.4,1017.3c2.6,16.1,7.7,31.5,14.8,46.1c2.8,5.6,11.2,0.7,8.4-4.9c-6.8-13.9-11.3-28.6-13.8-43.8
				C1466.8,1008.6,1457.4,1011.2,1458.4,1017.3L1458.4,1017.3z"/>
		</g>
		<g>
			<path class="st18" d="M1466.5,1016.6c2.4,11,6.4,21.5,11.8,31.4c3,5.5,11.4,0.6,8.4-4.9c-5-9.2-8.6-18.9-10.8-29.1
				C1474.6,1007.9,1465.2,1010.5,1466.5,1016.6L1466.5,1016.6z"/>
		</g>
		<path class="st20" d="M1294.6,1099.2l5.3,61.2c0,0,50-11.7,72.8-43.7C1381.8,1103.9,1294.6,1099.2,1294.6,1099.2z"/>
		<path class="st20" d="M1265.1,1049.7c1.2,0.7,38.1,38.8,44.4,58.3c5.2,16.2,8.7,44.3-4.5,50.9c-20.5,10.2-63.8-35-63.8-35
			L1265.1,1049.7z"/>
		<path class="st16" d="M1226.2,1495.1c0,0,0.3,11.4,8,14.6s30,6.1,21.7,13.4c-4.8,4.2-27.4,1.5-33.7,1.5c-6.4,0-12.4,2.8-17.1-1.5
			c-5.2-4.7,0-28,0-28s5.5,2.9,10.4,2.7C1222.7,1497.6,1226.2,1495.1,1226.2,1495.1z"/>
		<path class="st16" d="M1137.7,1495.1c0,0,0.3,11.4,8,14.6c7.7,3.2,30,6.1,21.7,13.4c-4.8,4.2-27.4,1.5-33.7,1.5
			c-6.4,0-12.4,2.8-17.1-1.5c-5.2-4.7,0-28,0-28s5.5,2.9,10.4,2.7C1134.2,1497.6,1137.7,1495.1,1137.7,1495.1z"/>
		<path class="st7" d="M1275.7,1200.3c2.3,0.1,4.2,1.9,4.4,4.2c0.9,10.8,1.8,44.6-10.3,117.4c-11,66-24,132.6-30.3,164.5
			c-2.3,11.4-11.9,19.8-23.2,20.2l-6.1,0.2c-12.3,0.5-22.3-10.1-21.4-22.6l15.4-215.8c0,0-0.5-69.4,18-69.8
			C1233.3,1198.4,1264.6,1199.8,1275.7,1200.3z"/>
		<path class="st7" d="M1240.2,1204.3l-88.6,288c-3.6,11.5-14,19.4-25.8,19.6l-5.2,0.1c-12.2,0.2-21.5-11-19.3-23.3l49.1-275.6
			c0.7-3.1,14.5-6.4,17.4-7.2C1184,1201.4,1241.7,1192.9,1240.2,1204.3z"/>
		<g>
			<path class="st21" d="M1199,1340l-1.4-0.4l18.4-56.1c4.3-13,13-23.8,24.7-30.4l0.7,1.3c-11.3,6.5-19.9,17-24,29.6L1199,1340z"/>
		</g>
		<path class="st16" d="M1161,1055.4c0,0,10.9-30.7,49.8-29.3c38.9,1.4,68.3,52.5,75.6,162.5c0,0-63.7-14-138.4,18.6
			C1148,1207.1,1143.9,1100.2,1161,1055.4z"/>
		<path class="st16" d="M1133.3,1058.7l27.9,12.5c0,0,70.9,7.1,89.7,3.7c18.8-3.4,25.3-18.9,25.3-18.9s-21.5-22.8-55.5-28.9
			c-3.2-0.6-6.4-0.7-9.9-0.9c-5.8-0.4-11.6-0.2-17.2,0.4C1160,1030,1133.3,1058.7,1133.3,1058.7z"/>
		<g>
			<g>
				<path class="st16" d="M1237.5,1019.2l-0.1-0.4c0.1,0,5-1.2,6.4-4.6c0.7-1.8,0.4-3.8-1-6.1c-0.7-1.1-1.3-2.1-1.8-2.9
					c-3.9-6.2-5.3-8.5-4.3-13.5l0.4,0.1c-1,4.9,0.3,7,4.2,13.2c0.6,0.9,1.2,1.9,1.8,2.9c1.5,2.4,1.9,4.6,1.1,6.5
					C1242.7,1017.9,1237.7,1019.1,1237.5,1019.2z"/>
			</g>
			<g>
				<path class="st16" d="M1236.9,991.6c0,0-1.7,7.8,3.4,16c5.2,8.2-0.5,14.1-7.5,11c-7-3.1-9.7,5.8-18.6,0.9
					C1205.3,1014.5,1236.9,991.6,1236.9,991.6z"/>
			</g>
			<path class="st20" d="M1195.5,1026.2c3.9-0.4,7.2-2.8,8.8-6.4l4.8-11.2l1.4-3.3l8.2-19.1l-1.4,19.8l-0.9,11.9l-0.2,3.4
				c-0.2,2.8,1.7,5.2,4.5,5.7l0,0c1.5,2.4,3.5,7.2-2.6,9.1C1211.1,1038.4,1199.6,1032.8,1195.5,1026.2
				C1195.5,1026.2,1195.5,1026.2,1195.5,1026.2z"/>
			<path class="st22" d="M1209.1,1008.2c0,0.1,0,0.2,0,0.3c0.5,6.4,7.3,9.4,7.3,9.4l0,0l0.9-11.9c-2.1-0.8-5.1-1.6-6.8-0.7
				C1209.6,1005.7,1209,1006.6,1209.1,1008.2z"/>
			<ellipse class="st20" cx="1219.7" cy="989.3" rx="18.6" ry="23"/>
			<path class="st20" d="M1203.5,992.8c2.1,2,5.1,2.2,6.6,0.5c1.5-1.8,1.1-4.8-1.1-6.8c-2.1-2-5.1-2.2-6.6-0.5
				S1201.4,990.8,1203.5,992.8z"/>
			<path class="st23" d="M1229.7,1004.2c0,0-6.4,0.1-12.7-2.1c0,0-0.5,6.3,6.4,6.7C1227.3,1009,1229.7,1004.2,1229.7,1004.2z"/>
			<path class="st8" d="M1229.7,1004.2c0,0-1.5,1.3-5.1,1.3c-3.6,0-7.6-3.3-7.6-3.3S1224.6,1004.2,1229.7,1004.2z"/>
			<g>
				<path class="st24" d="M1221.5,989.6c0.1,0,0.2-0.1,0.3-0.3c0.1-0.2,0-0.5-0.2-0.5c-0.1-0.1-3-1.5-5.5,1.2
					c-0.2,0.2-0.2,0.4,0,0.6c0.2,0.2,0.4,0.1,0.6,0c1.9-1.3,4.4-1.1,4.6-1C1221.3,989.6,1221.4,989.6,1221.5,989.6z"/>
			</g>
			<path class="st24" d="M1218.1,994.2c0,1,0.5,1.8,1.3,1.9c0.7,0,1.4-0.8,1.4-1.8c0-1-0.5-1.8-1.3-1.9
				C1218.8,992.4,1218.1,993.2,1218.1,994.2z"/>
			<g>
				<path class="st24" d="M1236.6,991.8c0.1,0,0.3,0,0.4-0.1c0.2-0.2,0.2-0.4,0-0.6c-0.1-0.1-2.2-2.5-5.5-1
					c-0.2,0.1-0.3,0.3-0.2,0.6c0.1,0.2,0.3,0.3,0.6,0.2c2.3-0.5,4.5,0.7,4.6,0.8C1236.4,991.7,1236.5,991.8,1236.6,991.8z"/>
			</g>
			<path class="st24" d="M1231.7,994.8c-0.4,0.9-0.2,1.9,0.5,2.2c0.7,0.3,1.5-0.2,2-1.1c0.4-0.9,0.2-1.9-0.5-2.2
				C1233,993.4,1232.1,993.9,1231.7,994.8z"/>
			<g>
				<path class="st16" d="M1227.6,970.5c0,0-0.4,8-10.4,9.3s-16.8,5.6-15.5,12.7c1.3,7.2,17.4,22,5.6,27.8c-11.8,5.8-9.3-5-22.1-2.5
					c-12.8,2.5-15.1-14.6-6.3-24.5c8.8-9.9,5.2-36.1,38.2-34.9c33,1.2,20.9,27.5,20.9,27.5S1227.5,979.3,1227.6,970.5z"/>
			</g>
			<g>
				<path class="st8" d="M1203.9,1021.9l-0.1-0.2c2.4-1,3.9-2.4,4.4-4.3c1.4-5.2-4.8-13.2-10.2-20.3c-1.4-1.9-2.8-3.7-4-5.3
					c-3.4-4.7-3.7-10.3-0.8-14.7c3.2-4.8,9.4-6.9,16-5.3c12.3,2.8,17.4-4.5,17.4-4.6l0.2,0.1c0,0.1-5.2,7.6-17.7,4.7
					c-6.5-1.5-12.5,0.5-15.7,5.2c-2.9,4.3-2.6,9.7,0.8,14.4c1.2,1.7,2.6,3.5,4,5.3c5.5,7.1,11.7,15.2,10.3,20.5
					C1207.9,1019.4,1206.4,1020.9,1203.9,1021.9z"/>
			</g>
			<g>
				<path class="st25" d="M1235.3,1006.8c-1,0-2-0.3-2.8-0.8c-4-2.5-5.5-10-3.4-16.7l0,0c1.3-4.1,3.8-7.2,6.6-8.2
					c1.7-0.6,3.3-0.5,4.8,0.5c4,2.5,5.5,10,3.4,16.7c-1.3,4.1-3.8,7.2-6.6,8.3C1236.6,1006.7,1235.9,1006.8,1235.3,1006.8z
					 M1229.8,989.5c-2,6.4-0.7,13.5,3,15.8c1.3,0.8,2.7,0.9,4.1,0.4c2.6-0.9,4.8-3.8,6.1-7.7c2-6.4,0.7-13.5-3-15.8
					c-1.3-0.8-2.7-0.9-4.1-0.4C1233.4,982.7,1231.1,985.6,1229.8,989.5L1229.8,989.5z"/>
			</g>
			<path class="st26" d="M1207.5,984.8c-1.5,6.6,0.9,13.6,5.3,15.7s9.2-1.5,10.7-8c1.5-6.6-0.9-13.6-5.3-15.7
				C1213.8,974.7,1209,978.3,1207.5,984.8z"/>
			<path class="st26" d="M1228.9,989.8c-1.5,6.6,0.5,13.7,4.5,16c4,2.2,8.4-1.3,9.9-7.9c1.5-6.6-0.5-13.7-4.5-16
				C1234.8,979.7,1230.4,983.2,1228.9,989.8z"/>
			<g>
				<path class="st25" d="M1216,1001.4c-1,0-2-0.2-3-0.7c-4.9-2.3-7.5-9.9-5.9-16.9l0,0c0.9-4.1,3.1-7.2,6-8.6c2-1,4.1-1,6,0
					c4.9,2.3,7.5,9.9,5.9,16.9c-0.9,4.1-3.1,7.2-6,8.6C1218,1001.1,1217,1001.4,1216,1001.4z M1216.2,975.3c-0.9,0-1.8,0.2-2.7,0.6
					c-2.6,1.3-4.7,4.3-5.5,8l0,0c-1.5,6.6,0.9,13.8,5.5,15.9c1.7,0.8,3.6,0.8,5.3,0c2.6-1.3,4.7-4.3,5.6-8.1
					c1.5-6.6-0.9-13.8-5.5-15.9C1217.9,975.5,1217,975.3,1216.2,975.3z"/>
			</g>
			<g>
				<path class="st25" d="M1229.8,992.2c-0.2,0-0.3-0.1-0.5-0.2l0,0c-0.1-0.1-2.1-1.6-5.5-1c-0.4,0.1-0.8-0.2-0.9-0.6
					c-0.1-0.4,0.2-0.8,0.6-0.9c4.2-0.9,6.7,1.2,6.8,1.3c0.3,0.3,0.4,0.8,0.1,1.1C1230.2,992.1,1230,992.2,1229.8,992.2z"/>
			</g>
		</g>
		<g>
			<path class="st25" d="M1142.8,1159.7l0-0.2C1142.8,1159.6,1142.8,1159.6,1142.8,1159.7z"/>
			<path class="st27" d="M1252.2,1303.8c20.5,0.5,37.6-15.6,38.3-36.1c4.7-134.8-28-205.7-37.1-213.8c-5.6-4.9-24.2,7.6-39.6,5.9
				c-15.3-1.7-12.9,9-16.9,31.9c-4,22.9-53.6,31.4-53.6,31.4l7,130.7c1.5,27.4,24,48.9,51.4,49.1
				C1218.4,1303.1,1236.7,1303.5,1252.2,1303.8z"/>
		</g>
		<g>
			<path class="st8" d="M1186.7,939.4l8.5,25c0,0,22.7,1.4,29.6-5.3l-7.8-23.9L1186.7,939.4z"/>
			<path class="st8" d="M1213.7,946.5c0,0-7.6,4.9-16.6,1.9c0,0-15.8,8-21-1.1c-5.2-9.1,5.7-16.7,13.1-15.3
				c7.3,1.4,21.6-7.8,27.2-6.1C1222,927.6,1239.1,941.7,1213.7,946.5z"/>
			<g>
				<path class="st28" d="M1190.6,951l-0.1-0.5c0.1,0,7-1.5,9.6-4.7l0.1-0.1l0.2,0c0.1,0,8,0.8,10.1-1.5l0.1-0.1l0.2,0.1
					c0.1,0,4.9,2,9.7,0.2l0.2,0.5c-4.6,1.6-9,0.2-9.9-0.2c-2.3,2.1-9.2,1.6-10.3,1.5C1197.7,949.5,1190.9,951,1190.6,951z"/>
			</g>
		</g>
		<path class="st27" d="M1209.1,1063.8c0,0-6.5-32.5-23.9-36c0,0-6.7-0.6-7.6,2c-0.9,2.6,14.3,8.2,17.9,20.3
			C1199,1062.1,1204.5,1072.6,1209.1,1063.8z"/>
		<path class="st27" d="M1253.6,1063c0,0-1.6-11.9-6.9-22c-4.3-8.2-12.8-13.3-22-13.5l-1.4,0c-1.1,2.5,15.1,8.5,17.7,20.8
			C1243.7,1060.6,1248.5,1071.5,1253.6,1063z"/>
		<g>
			<path class="st12" d="M1204.5,1066.9c0-2,0.8-4.2,3.9-4.2c2,0,3.6,1.6,3.6,3.6s-1.6,3.6-3.6,3.6S1204.5,1069,1204.5,1066.9z"/>
			<path class="st29" d="M1206,1066.4c0-0.5,0.2-1,0.9-1c0.5,0,0.9,0.4,0.9,0.9s-0.4,0.9-0.9,0.9S1206,1066.8,1206,1066.4z"/>
			<path class="st29" d="M1209.1,1066.4c0-0.5,0.2-1,0.9-1c0.5,0,0.9,0.4,0.9,0.9s-0.4,0.9-0.9,0.9
				C1209.6,1067.1,1209.1,1066.8,1209.1,1066.4z"/>
		</g>
		<g>
			<path class="st12" d="M1244,1061.3c-0.6-1.9-0.6-4.2,2.4-5.2c1.9-0.6,4,0.4,4.6,2.3c0.6,1.9-0.4,4-2.3,4.6
				C1246.8,1063.6,1244.6,1063.2,1244,1061.3z"/>
			<path class="st29" d="M1245.2,1060.3c-0.1-0.5-0.1-1,0.6-1.2c0.5-0.1,0.9,0.1,1.1,0.6s-0.1,0.9-0.6,1.1
				C1245.9,1060.9,1245.4,1060.8,1245.2,1060.3z"/>
			<path class="st29" d="M1248.1,1059.3c-0.1-0.5-0.1-1,0.6-1.2c0.5-0.1,0.9,0.1,1.1,0.6c0.1,0.5-0.1,0.9-0.6,1.1
				C1248.8,1059.9,1248.3,1059.8,1248.1,1059.3z"/>
		</g>
		<path class="st16" d="M1133.3,1058.7c-1,3,6.7,8.5,17.1,12.3c10.5,3.9,19.8,4.6,20.8,1.7c1-3-6.7-8.5-17.1-12.3
			C1143.7,1056.5,1134.3,1055.7,1133.3,1058.7z"/>
		<path class="st8" d="M1444.4,1098.4l12.8-6.6l100.8-50.9c1.6-0.8,2.5-2.5,2.1-4.3c-0.6-2.4-3.1-3.5-5.2-2.6l-99.9,43.9
			c-1.8,0.8-3.9,0-4.6-1.8c-1.1-2.7,0.1-5.9,2.8-7.1l98-44.6c1.4-0.7,2.3-2.2,2-3.7c-0.5-2-2.6-3-4.4-2.2l-99.1,41.1
			c-3.1,1.3-6.7-0.1-8.1-3.1c-1.2-2.5,0-5.5,2.5-6.6l98.6-44.9c1.6-0.7,2.5-2.5,1.9-4.1c-0.6-1.7-2.6-2.6-4.3-1.9l-101.9,42.2
			c-1.7,0.7-3.6-0.1-4.3-1.7v0c-1.3-2.9,0.1-6.3,2.9-7.5l98-43.1c1.8-0.8,2.9-2.9,2.2-4.8c-0.7-2-2.9-3-4.9-2.3l-106.2,40l-12.7,4.7
			c-0.2,0.1-0.4,0.2-0.6,0.3l0,0c-2.8,1.1-4.1,4.2-2.9,7l0.3,0.6l1.9,4.4l0,0c4.5,10.3-0.5,22.4-11.1,26.3l-303.1,114.1
			c-13.9,5.2-20.6,21.1-14.6,34.7l0,0c6.2,14,22.8,20.1,36.5,13.3l292.7-144.5c8.5-4.2,18.8-0.5,22.6,8.2l0,0l2.1,4.8l0.4,1
			c1,2.3,3.7,3.2,5.9,2.1h0C1443.6,1098.7,1444,1098.6,1444.4,1098.4z"/>
		<g>
			<g>
				<path class="st20" d="M1367.7,1125.1c0,0-7.8,8-14.4,1.3c-8.5-8.5-10.3-27.9-4.8-22.6c4.8,4.7,10,13.2,10,13.2
					s-12.8-21.7-7.2-23.2c5.6-1.5,14.9,14.2,14.9,14.2s-9-19.3-3.4-19s15.4,17.3,15.4,17.3s-11.3-21.3-4.8-20.8s10.2,11,12.9,15.8
					c2.6,4.6,0.2,9.8-4.5,12.4c0,0-3.5,5.2-6.9,6.1c-1.3,0.3-1.9,2.1-2.6,2.7C1370.8,1123.5,1367.7,1125.1,1367.7,1125.1z"/>
			</g>
			<g>
				<path class="st30" d="M1374.9,1120.1c-0.2,0-0.4-0.2-0.4-0.4c0-0.2,0.1-0.5,0.4-0.5c2.1-0.3,4.8-2,5.3-4.1
					c0.3-1.1,1-1.3,1.8-1.4c1-0.2,2.5-0.5,4.6-3.3c3.5-4.7-4.4-15.9-4.5-16c-0.1-0.2-0.1-0.5,0.1-0.6c0.2-0.1,0.5-0.1,0.6,0.1
					c0.3,0.5,8.3,11.8,4.5,17c-2.3,3.1-4,3.4-5.2,3.7c-0.7,0.1-0.9,0.2-1.1,0.8C1380.4,1117.8,1377.4,1119.7,1374.9,1120.1
					C1374.9,1120.1,1374.9,1120.1,1374.9,1120.1z"/>
			</g>
		</g>
		<g>
			<path class="st20" d="M1210.5,1167.3l0.4-22.8c0.1-3.1-2.4-5.7-5.5-6c-15.9-1.1-27-6-33.1-14.6c-8.5-11.9-4.3-34.3-1.9-47.1
				c1.2-6.6-4.2-7.1-12.2-11.3c0,0-6.9-3.8-15.3-5.2c-3.4-0.6-6.8,0.8-7.6,4.1c-1.4,5.2-3.1,13.2-4,22.7c-2,22.5,2.4,42.1,12.6,56.6
				c12.6,17.8,32.9,27.7,60.4,29.4C1207.6,1173.2,1210.4,1170.6,1210.5,1167.3z"/>
		</g>
		<g>
			<path class="st30" d="M1152,1137.3c-2.1,0-4.6-1.3-6.4-3.5l0,0c-1.6-2-2.4-4.4-2.2-6.4c0.1-1.3,0.7-2.3,1.6-3
				c2.3-1.9,6.4-0.7,9.1,2.7c1.6,2,2.4,4.4,2.2,6.4c-0.1,1.3-0.7,2.3-1.5,3C1154,1137.1,1153,1137.3,1152,1137.3z M1147.6,1124.2
				c-0.8,0-1.6,0.2-2.2,0.7c-0.7,0.6-1.2,1.4-1.3,2.5c-0.2,1.8,0.6,4,2,5.9l0,0c2.4,3,6.1,4.1,8.1,2.5c0.7-0.6,1.2-1.4,1.3-2.5
				c0.2-1.8-0.6-4-2-5.9C1151.8,1125.4,1149.5,1124.2,1147.6,1124.2z"/>
		</g>
		<g>
			<g>
				<path class="st20" d="M1197.4,1138c0,0,18.1-15.8,28.3-17.8s24.8,3.1,18.7,5.7c-6.1,2.6-14.7,3.8-14.7,3.8s18.6-1.7,17.1,2.8
					c-1.5,4.5-17.7,5.8-17.7,5.8s22.3-0.2,19.5,3.6c-2.8,3.8-19.8,3.8-19.8,3.8s20.8,0.6,17.4,5c-3.4,4.3-17.2-0.6-18.7,3.9
					c-1.5,4.5-13.2,20.6-26.3,18L1197.4,1138z"/>
			</g>
			<g>
				<path class="st30" d="M1222.4,1132.3c-0.1,0-0.2,0-0.2-0.1c-0.2-0.1-0.2-0.4-0.1-0.5c2.1-2.7,7.5-2.4,7.7-2.4
					c0.2,0,0.4,0.2,0.4,0.4c0,0.2-0.2,0.4-0.4,0.4c0,0,0,0,0,0c0,0-5.2-0.3-7,2.1C1222.6,1132.3,1222.5,1132.3,1222.4,1132.3z"/>
			</g>
			<g>
				<path class="st30" d="M1220.4,1141.4c-0.1,0-0.2,0-0.3-0.1c-0.1-0.2-0.1-0.4,0-0.5c3.6-3.2,8.8-2.8,9.1-2.8
					c0.2,0,0.4,0.2,0.4,0.4c0,0.2-0.2,0.4-0.4,0.4c0,0-5.1-0.4-8.5,2.6C1220.6,1141.4,1220.5,1141.4,1220.4,1141.4z"/>
			</g>
			<g>
				<path class="st30" d="M1220.7,1148.7c-0.1,0-0.1,0-0.2-0.1c-0.2-0.1-0.2-0.4-0.1-0.5c2-3.1,8.3-2.7,8.6-2.7
					c0.2,0,0.4,0.2,0.4,0.4c0,0.2-0.2,0.4-0.4,0.4c0,0,0,0,0,0c-0.1,0-6.2-0.3-7.9,2.3C1220.9,1148.6,1220.8,1148.7,1220.7,1148.7z"
					/>
			</g>
		</g>
		<g>
			<path class="st18" d="M1460.4,1011.8c2.6-10,13.9-22.5,25-22c13.6,0.6,27,10.9,31.7,23.3c10.5,27.5-6.8,55.6-12.3,82.1
				c-5.3,25.5-3.4,53.2,14.5,73.5c14.8,16.8,36.3,25.5,52.2,41c10,9.7,16.3,22.2,15.4,36.5c-1,15.6-10.9,28.8-24.8,35.4
				c-5.7,2.7-0.7,11.1,4.9,8.4c27.2-12.9,37.8-47,22.6-73.1c-12.6-21.6-37-31.3-55.2-47c-10.7-9.2-18.2-20.5-21.1-34.5
				c-3.1-14.9-1.2-30.6,2.7-45.2c7.5-28.2,23.8-60.4,6.2-88.4c-4.3-6.9-10.6-12.3-17.8-15.9c-7.3-3.6-16-6.9-24.2-5.3
				c-13.3,2.6-25.9,15.9-29.3,28.8C1449.4,1015.3,1458.8,1017.9,1460.4,1011.8L1460.4,1011.8z"/>
		</g>
		<g>
			<path class="st18" d="M1452,1013.7c2.4-9.6,11.1-24.4,22.6-24c13.6,0.5,27,10.9,31.7,23.3c10.5,27.5-6.8,55.6-12.3,82.1
				c-5.3,25.5-3.4,53.2,14.5,73.5c14.8,16.8,36.3,25.5,52.2,41c10,9.7,16.3,22.2,15.4,36.5c-1,15.6-10.9,28.8-24.8,35.4
				c-5.7,2.7-0.7,11.1,4.9,8.4c27.2-12.9,37.8-47,22.6-73.1c-12.6-21.6-37-31.3-55.2-47c-10.7-9.2-18.2-20.5-21.1-34.5
				c-3.1-14.9-1.2-30.6,2.7-45.2c7.5-28.2,23.8-60.4,6.2-88.4c-4.3-6.9-10.6-12.3-17.8-15.9c-7.2-3.6-16.1-7-24.2-5.3
				c-13.5,2.8-23.8,18.1-26.9,30.7C1441,1017.2,1450.4,1019.8,1452,1013.7L1452,1013.7z"/>
		</g>
		<g>
			<path class="st18" d="M1449,1016.5c2.6-11.1,8.3-24.1,21.9-20.5c13.6,3.6,24.4,12.1,28.5,25.9c8.1,27.8-9.2,55-14.1,81.8
				c-4.6,25.1-1.9,51.8,15.9,71.3c14.9,16.4,36.1,25,51.8,40.5c10,9.8,16.1,22.6,14.9,36.9c-1.3,15.2-11.1,28.1-24.8,34.5
				c-5.7,2.7-0.7,11.1,4.9,8.4c27-12.8,37.7-46.5,22.9-72.6c-12.2-21.5-36.3-31.4-54.6-46.7c-10.5-8.9-18.3-19.5-21.6-33.1
				c-3.5-14.5-2.1-30,1.4-44.4c7-28.7,23.7-59.2,8.8-88.4c-3.6-7-9.2-12.9-15.9-17c-6.9-4.2-16.1-8.1-24.4-7.7
				c-15,0.6-22.2,15.7-25.3,28.4C1438.2,1020,1447.6,1022.6,1449,1016.5L1449,1016.5z"/>
		</g>
		<g>
			<path class="st18" d="M1469.8,1009.2c4.3-9.8,13.4-17,23.4-20.5c3.9-1.4,8.3-2.4,12.4-1.8c6.2,1,11.2,6.1,14.9,10.8
				c8.6,10.9,13.4,24.8,13.7,38.7c0.3,14.6-4.9,28.4-8.7,42.3c-3.6,13.2-5.6,26.8-2.4,40.3c3.1,12.9,10.3,24.7,19.9,33.7
				c17.4,16.6,41.7,24.6,57.6,42.9c23.2,26.8,13.1,65.1,1.8,94.6c-2.2,5.9,7.2,8.4,9.4,2.6c11-28.8,19.3-61.9,4.6-91.1
				c-12.5-24.7-39.4-34.2-60-50.3c-11.5-8.9-20.4-20.7-23.9-35c-3.7-15.5,1.1-30.9,5.4-45.7c4.2-14.6,7.4-29.1,5.1-44.4
				c-2.1-14.1-8.5-28-18.2-38.5c-9.4-10.1-21.3-13-34.3-8.6c-12.2,4.2-23.9,12.9-29.2,25C1458.9,1010,1467.3,1014.9,1469.8,1009.2
				L1469.8,1009.2z"/>
		</g>
		<g>
			<path class="st18" d="M1506.6,986.1c14.5,16.2,24.8,35.8,30.1,56.9c5.5,21.9,2.1,45.3,13.2,65.6c10.6,19.2,28.7,32.3,45.8,45.3
				c17.8,13.6,33.3,28.7,45,47.9c12.5,20.4,20.5,43.1,24.8,66.6c1.1,6.2,10.5,3.6,9.4-2.6c-7.8-42.6-28.4-83-62.1-110.8
				c-17.3-14.2-37.4-26.1-50.4-44.8c-7-10.1-10.4-20.9-11.5-33.1c-1-11.3-1.6-22.5-4.1-33.6c-5.4-23.9-17.1-46.1-33.4-64.4
				C1509.3,974.5,1502.4,981.4,1506.6,986.1L1506.6,986.1z"/>
		</g>
		<g>
			<path class="st18" d="M1451.7,1007.6c7.6-7.4,19.2-3.2,25.5,3.7c6.9,7.6,9,17.9,8.7,27.9c-0.9,23.4-12.3,45.4-16.5,68.2
				c-2,11-2.6,22.1-0.6,33.1c1.7,9.7,5.5,18.9,9.5,27.8c8,17.6,19.1,36,17,56.1c-1.3,12.5-7.4,24.1-12,35.6
				c-4.9,12.4-7.8,25.3-9,38.5c-0.5,6.3,9.2,6.2,9.8,0c1.1-13.3,4.6-26,9.6-38.3c4.6-11.1,9.7-22.1,11.2-34.2
				c2.7-21.6-8-41-16.8-59.9c-4.6-9.9-9-20.3-10.3-31.2c-1.6-13.1,0.9-26.2,4.2-38.9c6.1-22.9,17.8-47.7,12.3-71.9
				c-2.4-10.7-9-21.3-18.9-26.6c-9.9-5.3-22.4-5-30.7,3.1C1440.3,1005.1,1447.2,1012,1451.7,1007.6L1451.7,1007.6z"/>
		</g>
		<polygon class="st8" points="1431.4,1019.6 1470.7,1004.8 1470.7,1011.7 1439.7,1020.8 		"/>
	</g>
	<g>
		<path class="st31" d="M1647.6,579.3c0,0-16.6-3.1-21.4-10.2c-3.9-5.9-2.8-17.9,6.9-24.2c5-3.2,18.5-3.2,21.6-3.5
			c8.9-0.8,17.5,18.7,17.5,18.7L1647.6,579.3z"/>
		<g>
			<path class="st32" d="M1835.8,615.9l-18.1-38.3l8.6,22.9l-12.4-21.2c-62.3,11.3-73.8,11.5-82.5,8.2
				c-18.3-7.1-58.5-31.3-62.5-38.9l-24.5,27.9c0.6,1.1,31.3,40.7,81.2,52.1C1777.9,640.5,1835.2,616.3,1835.8,615.9z"/>
		</g>
		<path class="st16" d="M1731.4,927.4c0,0-3.1,19.9-11.2,30.1c-5.4,6.7-20.1,19.9-9.6,24.4c8.4,3.5,24.5-12.2,29.8-16.1
			c5.2-3.9,13.2-11.3,11.4-17.6c-3.6-13.1-2.4-29.5-2.4-29.5L1731.4,927.4z"/>
		<path class="st16" d="M1771.9,912c0,0,4.1,19.7,0,32.1c-2.7,8.1-11.9,25.7-0.6,26.2c9.1,0.4,18.8-19.9,22.3-25.4
			c3.6-5.5,8.4-15.2,4.6-20.5c-7.9-11-12.5-26.8-12.5-26.8L1771.9,912z"/>
		<g>
			<path class="st7" d="M1766.2,925.9c-108.9-72.6-103.5-136.3-88.4-161.2c17.5-28.9,45.3-51.8,87.8-62c11.3-2.7,22.1-4.3,31.2-5.2
				c13.1-1.3,24.3,9.1,24,22.2l-1,37.1l0.1,0c-18.2-0.4-73.3,5.2-87.7,34.5c-3,6.1,70.3,92.2,67.6,107.7
				C1796.6,916.6,1776.9,933,1766.2,925.9z"/>
		</g>
		<g>
			<path class="st7" d="M1724,936.8c-12.5,0.1-22.5-10.5-21.8-23c1.6-27.8,6.8-75.1,23-110.8c9.2-20.3,23.8-38.7,43.4-54.8
				c14.8-12.1,32.5-23,52.6-32.2c33.4-15.4,57.5-13.2,57.5-13.2l34.1,29.1c-0.2,0,5.6,40.8-36.8,64.5c-43.5,24.3-76.7,6.2-94.4,40.7
				c-12.6,24.6-17.4,57.3-19,80.1c-0.8,10.9-9.8,19.4-20.8,19.4L1724,936.8z"/>
		</g>
		<g>
			<path class="st21" d="M1706.4,875.5l-0.7,0c0-0.2,1.8-25.1,9.4-53.3c7.1-26,20.9-60.2,46.2-75.3l0.3,0.6
				c-25.1,15-38.9,49-45.9,74.9C1708.1,850.4,1706.4,875.3,1706.4,875.5z"/>
		</g>
		<g>
			<path class="st21" d="M1761.9,922.8h-0.7c0.3-38.7,12.9-68.6,13.1-68.9l0.6,0.3C1774.8,854.4,1762.1,884.2,1761.9,922.8z"/>
		</g>
		<path class="st27" d="M1897.5,600.4c0,0-11.4-30.4-53.9-28.1c-42.5,2.3-71.8,11.9-78,130.4c0,0,35.7,35.3,124.1,40.7
			c13.1,0.8,28.9,5.3,29.6-7.8C1920.8,709.7,1915.5,660,1897.5,600.4z"/>
		<path class="st27" d="M1927.7,610.6l-30.2,6.8c0,0-80,22.7-100.6,19.4c-20.6-3.3-30-50.7-30-50.7s27.8-7.5,64.9-14.7
			c3.5-0.7,7.1-1.2,10.9-1.5c6.3-0.6,12.4-1.1,18.5-0.5C1921.6,575.7,1927.7,610.6,1927.7,610.6z"/>
		<path class="st20" d="M1850.2,564.1l-6.4-11.3l-1.9-3.3l-10.9-19.3l3.7,20.8l2.2,12.5l0.7,4c0.5,2.7-1,3.6-2.5,6.3
			c-0.6,1.1-4.5,7.9,1.9,9.2c7.9,1.6,20.4-6.2,24.1-13.6C1861.1,569.3,1852.3,567.7,1850.2,564.1z"/>
		<g>
			<path class="st33" d="M1812.8,526c0,0-0.2,5.3,2.5,11.3c2.7,6,5.7-10.9,5.7-10.9L1812.8,526z"/>
			
				<ellipse transform="matrix(0.9964 -8.467210e-02 8.467210e-02 0.9964 -38.9461 157.1948)" class="st20" cx="1833.7" cy="537.7" rx="18.8" ry="22.7"/>
			<path class="st16" d="M1851.6,529.7l-9.1,1c-2,0.2-4-0.4-5.4-1.9c-2.5-2.5-5-3.4-13.2-1.3c-10.4,2.7-18.8-2.1-21.1-7.3
				c-2.4-5.4,2.2-10.4,8-8.8c5.9,1.5,2.2-4.6,7.1-6.4c9.2-3.4,12.6,3.6,20.3,1.6c10.1-2.5,30.1,1.2,25.4,21.1L1851.6,529.7z"/>
			<g>
				<path class="st24" d="M1832.5,537c-0.1,0-0.2-0.1-0.2-0.2c-0.1-0.2,0.1-0.4,0.3-0.5c0.1,0,2.8-1.1,4.8,1.5
					c0.1,0.2,0.1,0.4-0.1,0.5c-0.2,0.1-0.4,0.1-0.5-0.1c-1.7-1.3-3.9-1.3-4-1.3C1832.7,537,1832.6,537,1832.5,537z"/>
			</g>
			<path class="st24" d="M1835.2,541.5c0,0.9-0.6,1.6-1.3,1.6c-0.7,0-1.2-0.8-1.1-1.7c0-0.9,0.6-1.6,1.3-1.6
				C1834.7,539.8,1835.2,540.5,1835.2,541.5z"/>
			<g>
				<path class="st24" d="M1818.5,538.9c-0.1,0-0.2,0-0.2-0.1c-0.1-0.2-0.1-0.4,0-0.5c0.1-0.1,1.6-2.1,3.9-0.4
					c0.1,0.1,0.2,0.3,0.1,0.5c-0.1,0.2-0.2,0.2-0.4,0.1c-1.6-0.6-3.2,0.3-3.2,0.3C1818.6,538.9,1818.5,538.9,1818.5,538.9z"/>
			</g>
			<path class="st24" d="M1822.7,542c0.3,0.9,0,1.7-0.6,2c-0.6,0.2-1.4-0.3-1.7-1.2c-0.3-0.9,0-1.7,0.6-2
				C1821.7,540.6,1822.4,541.1,1822.7,542z"/>
			<path class="st33" d="M1863.5,527.7c0,0-3.2,14.6-11.8,17.5c0,0,4.8-11.7-11.4-14.6C1840.3,530.6,1853.5,525.5,1863.5,527.7z"/>
			<path class="st20" d="M1852.8,537.7c-1.6,1.6-4.1,1.7-5.5,0.3c-1.4-1.4-1.3-3.9,0.3-5.5c1.6-1.6,4.1-1.7,5.5-0.3
				C1854.5,533.7,1854.4,536.1,1852.8,537.7z"/>
			<path class="st33" d="M1840.3,530.6c0,0,3.6,10.9,1.8,13.5s-16.6,6.8-24.2,5.6l0,0c1.4,7.2,7.9,12.4,15.2,12
				c2.4-0.1,4.8-0.6,7.1-1.6l0,0c4.7-1.9,9-5,10-10c0.3-1.5-3.3-9.6-3.3-9.6s-1.8-4.8,0.6-8.1
				C1847.6,532.5,1843.6,530.2,1840.3,530.6z"/>
			<path class="st8" d="M1822.6,552.9c0,0,6.1,0.3,12.2-1.7c0,0,0.3,6-6.2,6.2C1824.7,557.6,1822.6,552.9,1822.6,552.9z"/>
			<g>
				<path class="st16" d="M1811.5,510.3l-0.1-0.5c2.4-0.5,2.2-2.4,2.2-2.5l0.5-0.1C1814.1,507.2,1814.4,509.7,1811.5,510.3z"/>
			</g>
			<g>
				<path class="st8" d="M1820.2,525.2c-0.5,0-12.2-0.9-14-6.7c-0.5-1.7-0.5-2.9,0.1-3.7c1-1.3,3.2-1.3,5.1-1.2c0.3,0,0.5,0,0.8,0
					c0,0,0,0,0,0v0.3c0,0,0,0,0,0c-0.5,0-1.1,0-1.6,0c-1.6,0-3.3,0.1-4,1.2c-0.6,0.7-0.6,1.9-0.1,3.5c1.7,5.7,13.7,6.5,13.8,6.5
					L1820.2,525.2z"/>
			</g>
		</g>
		<path class="st32" d="M1672.8,559.2l-5.4-0.8c-2.1,1.3-4.9,0.7-6.1-1.3c0,0-5.6-13.6-11.5-21.1c-7.8-9.9,0.8-10.5,7.1-4.7
			C1674,546.9,1671.4,552.7,1672.8,559.2z"/>
		<g>
			<g>
				<path class="st20" d="M1813.9,737.3c0,0-18.9-4.8-28.4,1.7c-9.4,6.4-16.7,21.8-10,19s14.3-8.6,14.3-8.6s-15.6,13.3-10.9,15.6
					c4.7,2.3,18.2-9.4,18.2-9.4s-17.3,17.3-12.2,18.1c5.1,0.7,18.2-12.5,18.2-12.5s-15.5,16.7-9.5,17.5c6,0.7,12.7-13.9,17.4-11.6
					s24.1,9.9,32.1-2.4L1813.9,737.3z"/>
			</g>
			<g>
				<path class="st30" d="M1790.2,749.6l-0.6-0.5c0.2-0.2,3.7-4.2,7.3-4.2c0.2,0,0.4,0,0.5,0l-0.1,0.8
					C1793.9,745.3,1790.3,749.6,1790.2,749.6z"/>
			</g>
			<g>
				<path class="st30" d="M1797.5,755.8l-0.6-0.5c0.2-0.2,3.9-4.5,9.2-4.9l0.1,0.8C1801.1,751.6,1797.5,755.8,1797.5,755.8z"/>
			</g>
			<g>
				<path class="st30" d="M1803.5,761.4l-0.6-0.5c0.2-0.2,4.2-4.7,7.9-4.7c0.3,0,0.6,0,0.9,0.1l-0.2,0.8
					C1807.9,756.3,1803.5,761.4,1803.5,761.4z"/>
			</g>
		</g>
		<path class="st16" d="M1872,618.3c0.5,3.9,13.5,5.4,28.9,3.3c15.4-2.1,27.4-7.1,26.9-11c-0.5-3.9-13.5-5.4-28.9-3.3
			C1883.5,609.5,1871.4,614.4,1872,618.3z"/>
		<g>
			<path class="st20" d="M1839.8,768.3c49.9-24.7,74.2-42.5,81.1-89.4c5.6-38.1,0.8-64.5,0.4-65.8c0,0-3.2-3.9-22.6-0.4
				c-17.3,3.2-18.3,7.3-18.3,7.3c0.1,0.2,7.3,23.6,0.8,51.6c-8.3,35.8-24.9,51.7-67.2,65.7C1813.9,737.3,1829.7,773.3,1839.8,768.3z
				"/>
		</g>
		<g>
			<path class="st16" d="M1872,618.6c-0.1,0-0.2-0.1-0.3-0.2c0-0.1-3-12.8-1.5-21.9c0-0.1,0.1-0.2,0.3-0.2c0,0,0,0,0,0
				c0.1,0,0.2,0.2,0.2,0.3c-1.5,9.1,1.4,21.6,1.5,21.7C1872.2,618.4,1872.2,618.6,1872,618.6C1872,618.6,1872,618.6,1872,618.6z"/>
		</g>
		<g>
			<path class="st30" d="M1899.3,711.2c-0.4,0-0.8-0.1-1.1-0.3c-1.9-1.1-1.6-4.9,0.6-8.8l0,0c1.5-2.6,3.6-4.6,5.4-5.1
				c0.7-0.2,1.4-0.1,1.9,0.2c1.9,1.1,1.6,4.9-0.6,8.8c-1,1.8-2.3,3.2-3.6,4.2C1900.9,710.9,1900.1,711.2,1899.3,711.2z M1904.9,698
				c-0.2,0-0.3,0-0.5,0.1c-1.5,0.4-3.4,2.2-4.7,4.6l0,0c-2,3.5-2.1,6.6-1,7.3c0.6,0.4,1.5,0.1,2.6-0.6c1.2-0.8,2.4-2.2,3.3-3.8
				c2-3.5,2.1-6.7,1-7.3C1905.3,698.1,1905.1,698,1904.9,698z"/>
		</g>
		<g>
			<path class="st15" d="M1635.5,675.5c-0.7,0-1.4-0.1-2.1-0.5c-2.5-1.1-3.6-4.1-2.4-6.5l176-384.1c1.1-2.5,4.1-3.6,6.5-2.4
				c2.5,1.1,3.6,4.1,2.4,6.5l-176,384.1C1639.2,674.4,1637.4,675.5,1635.5,675.5z"/>
		</g>
		<g>
			<path class="st15" d="M1612.8,682.4c-0.6,0-1.1-0.1-1.7-0.3c-2.6-0.9-3.9-3.8-2.9-6.3l187.1-511.2c0.9-2.6,3.7-3.9,6.3-2.9
				c2.6,0.9,3.9,3.8,2.9,6.3l-187.1,511.2C1616.7,681.2,1614.8,682.4,1612.8,682.4z"/>
		</g>
		<g>
			<path class="st15" d="M1598.1,686.3c-0.5,0-1-0.1-1.5-0.2c-2.6-0.8-4-3.6-3.1-6.2l163.1-497.4c0.8-2.6,3.6-4,6.2-3.1
				c2.6,0.8,4,3.6,3.1,6.2l-163.1,497.4C1602.1,684.9,1600.2,686.3,1598.1,686.3z"/>
		</g>
		<g>
			<path class="st15" d="M1612.8,688.9c-0.9,0-1.9-0.3-2.8-0.8c-2.3-1.5-2.9-4.6-1.3-6.8l271.5-402.8c1.5-2.3,4.6-2.9,6.8-1.3
				c2.3,1.5,2.9,4.6,1.3,6.8l-271.5,402.8C1615.9,688.1,1614.4,688.9,1612.8,688.9z"/>
		</g>
		<g>
			<path class="st15" d="M1620.1,690.7c-0.8,0-1.6-0.2-2.3-0.6c-2.4-1.3-3.3-4.3-2.1-6.7l230.3-436.6c1.3-2.4,4.3-3.3,6.7-2.1
				c2.4,1.3,3.3,4.3,2.1,6.7l-230.3,436.6C1623.6,689.8,1621.9,690.7,1620.1,690.7z"/>
		</g>
		<g>
			<path class="st15" d="M1630.4,688.4c-0.6,0-1.2-0.1-1.8-0.3c-2.5-1-3.8-3.9-2.8-6.4l175.1-447.2c1-2.5,3.9-3.8,6.4-2.8
				c2.5,1,3.8,3.9,2.8,6.4L1635,685.3C1634.3,687.2,1632.4,688.4,1630.4,688.4z"/>
		</g>
		<g>
			<path class="st20" d="M1623.7,562.7c0,0-2.9,9.5,4.9,11.8c10,2.8,31.8-10.2,9.1-10.5c-0.7,0,12.9-2,12.6-6.2
				c-0.2-3.1-11.8-2.7-11.8-2.7s13.9-2.4,14.1-5.7c0.2-3.4-11.9-3.1-11.9-3.1s13.8-0.6,10.9-5.5c-1.6-2.7-14-2.1-18.7-2.1
				c-4.5,0-6.2,3.2-6.2,8c0,0-2.5,5-1.8,8c0.3,1.2-0.8,2.3-1,3.2C1623.7,559.6,1623.7,562.7,1623.7,562.7z"/>
		</g>
	</g>
	<g>
		<path class="st20" d="M2096.3,941c0,0,76.7-0.6,82.3,0c5.6,0.6,40.3-26.3,40.3-26.3l26.6,22c0,0-34.3,38.2-61.4,39.8
			c-27,1.6-92.9-2-92.9-2L2096.3,941z"/>
		<path class="st20" d="M2229.6,882.8c0,0-46.6,52-45.4,58.8c1.2,6.9,46.9,10.6,46.9,10.6l13.2-40.8L2229.6,882.8z"/>
		<path class="st16" d="M2293.3,1319c0,0-0.3,10.7-7.5,13.7c-7.3,3-28.3,5.7-20.4,12.6c4.5,3.9,25.8,1.4,31.8,1.4
			c6,0,11.6,2.6,16.1-1.4c4.9-4.4,0-26.2,0-26.2s-5.2,2.7-9.8,2.6C2296.6,1321.4,2293.3,1319,2293.3,1319z"/>
		<path class="st25" d="M2224.9,999.3c0,0-1.4,48.1,14,140.3c11.2,66.6,24.3,133.7,30.8,165.8c2.3,11.5,12.1,19.9,23.6,20.4l6.2,0.2
			c12.5,0.5,22.6-10.2,21.7-22.8l-15.7-217.6l-3.9-71.6L2224.9,999.3z"/>
		<path class="st16" d="M2356.3,1320.8c0,0-0.3,10.7-7.5,13.7c-7.3,3-28.3,5.7-20.4,12.6c4.5,3.9,25.8,1.4,31.8,1.4
			c6,0,11.6,2.6,16.1-1.4c4.9-4.4,0-26.2,0-26.2s-5.2,2.7-9.8,2.6C2359.7,1323.2,2356.3,1320.8,2356.3,1320.8z"/>
		<path class="st25" d="M2293.7,999.3c0,0-1.4,48.1,14,140.3c11.2,66.6,24.3,133.7,30.8,165.8c2.3,11.5,12.1,19.9,23.6,20.4l6.2,0.2
			c12.5,0.5,22.6-10.2,21.7-22.8l-15.7-217.6l-3.9-71.6L2293.7,999.3z"/>
		<path class="st16" d="M2378.1,1052c-0.1,5.8-35.5,8.1-79.2,6.8s-78.6-7.4-78.5-13.2c0.1-5.8,35.3-9.2,79-7.9
			S2378.2,1046.2,2378.1,1052z"/>
		<path class="st2" d="M2367.4,887.8c0,0-7.7-30.4-64.8-30.7c-82.2-0.4-74.6,74.5-82.2,188.5c0,0,81-11.4,157.7,5
			C2378.1,1050.6,2385.2,934.3,2367.4,887.8z"/>
		<path class="st2" d="M2388.4,883.5l-37.2,20.5c0,0-81.6,7.3-103.2,3.8c-21.6-3.5-27.6-19.3-27.6-19.3s23.1-23.7,62.2-30
			c3.7-0.6,7.5-1,11.5-1.3c6.6-0.4,13.3-0.3,19.8,0.4C2363.6,863.1,2388.4,883.5,2388.4,883.5z"/>
		<path class="st25" d="M2227.3,1050.3c0,0,47.4-13.8,145.4,5.2l0.8,14l-143.8,5L2227.3,1050.3z"/>
		
			<ellipse transform="matrix(0.8125 -0.583 0.583 0.8125 -77.2845 1551.4034)" class="st16" cx="2373.1" cy="895.8" rx="19.8" ry="9.9"/>
		<g>
			<path class="st16" d="M2234.6,905.3c0.2,0,0.4-0.1,0.5-0.3c2.4-8.5,10.3-19.1,10.4-19.2c0.2-0.2,0.1-0.5-0.1-0.7
				c-0.2-0.1-0.5-0.1-0.7,0.1c-0.1,0.1-8.1,10.9-10.5,19.5c-0.1,0.2,0.1,0.5,0.3,0.6C2234.5,905.3,2234.6,905.3,2234.6,905.3z"/>
		</g>
		<g>
			<path class="st16" d="M2310.7,1158.8C2310.8,1158.8,2310.8,1158.8,2310.7,1158.8c0.3,0,0.5-0.3,0.5-0.5
				c-0.1-0.4-6.4-39.6-10.8-53.6c-1.5-4.7-4.7-9.7-9.5-14.7c-0.2-0.2-0.5-0.2-0.7,0c-0.2,0.2-0.2,0.5,0,0.7
				c4.7,4.9,7.9,9.7,9.3,14.3c4.4,14,10.7,53.1,10.8,53.5C2310.3,1158.6,2310.5,1158.8,2310.7,1158.8z"/>
		</g>
		<g>
			<path class="st20" d="M2315.3,862.9c3.1-4.5-1.1-5-2.3-9.6l-3.7-14.4l-1.1-4.2l-6.4-24.6l-2.2,24.1l-1.3,14.5l-0.4,4.6
				c-0.3,3.1-1.2,3.5-3.6,6.1c-1,1.1-4.7,5.3-0.2,7.7C2298.1,869.1,2311.3,868.6,2315.3,862.9z"/>
			<path class="st16" d="M2314.9,833.6c0,0,24.2-7.5,21.2-25.3c-3-17.8-22.4,15.3-22.4,15.3l-1.3,9.2L2314.9,833.6z"/>
			<path class="st16" d="M2309.4,838.5c0,0.1-0.1,0.3-0.1,0.4c-1.9,7.6-10.9,9.8-10.9,9.8l0-0.1l1.3-14.5c2.7-0.5,6.6-0.8,8.6,0.5
				C2309.2,835.4,2309.7,836.6,2309.4,838.5z"/>
			
				<ellipse transform="matrix(0.1691 -0.9856 0.9856 0.1691 1106.1425 2945.0295)" class="st20" cx="2299.8" cy="816.4" rx="25.7" ry="21.5"/>
			
				<ellipse transform="matrix(0.1691 -0.9856 0.9856 0.1691 1106.0847 2945.0503)" class="st20" cx="2299.8" cy="816.5" rx="25.7" ry="21.5"/>
			<path class="st16" d="M2318.4,816.4c0,0-7.1,1.2-9.9-4.1c-2.8-5.3-4.4-9.9-16.7-9.8c-12.3,0.1-22-7.4-21.2-13.9
				c0.7-6.5,7.5-8.4,13.6-5.1c6.1,3.3,0.2-3.7,7.4-7.4c7.2-3.7,15.1,7.6,22,7.4c6.8-0.2,27.4,6.7,22.8,24.7L2318.4,816.4z"/>
			<path class="st20" d="M2320.9,821.7c-2.2,1.3-5,0.8-6.1-1.2c-1.2-2-0.3-4.6,1.9-5.9c2.2-1.3,5-0.8,6.1,1.2
				C2323.9,817.8,2323.1,820.4,2320.9,821.7z"/>
			<g>
				<path class="st8" d="M2286.9,792.7c3.7,0,7.6-1.1,7.9-1.1l-0.1-0.3c-0.1,0-9.6,2.6-13.1-0.2c-1.7-1.4-1.8-2.5-1.3-3.2
					c0.6-0.7,2-0.9,3.6,0c3,1.8,5.1,1.7,5.2,1.6l0-0.3c0,0-0.1,0-0.2,0c-0.6,0-2.5-0.1-4.8-1.6c-1.7-1.1-3.3-0.8-4,0.1
					c-0.5,0.7-0.4,2,1.4,3.6C2282.7,792.3,2284.8,792.7,2286.9,792.7z"/>
			</g>
			<g>
				<path class="st8" d="M2325.3,789.6l0.2-0.2c-2.5-1.9-5.7-1.8-9.2-1.7c-1.8,0.1-3.7,0.1-5.7-0.1c-6.1-0.5-10.8-6.4-10.9-6.8
					l-0.3,0.1c0.1,0.4,4.7,6.5,11.1,7c2,0.2,3.9,0.1,5.7,0.1C2319.8,787.8,2322.9,787.8,2325.3,789.6z"/>
			</g>
			<g>
				<path class="st8" d="M2331.9,804.8c-0.9-0.1-2.3-2.9-2.3-4.2c0-0.7,0.4-0.8,0.6-0.9c0,0,0.1,0,0.1,0c1.7,0,2.3,4,2.3,4.2l0,0
					l0,0C2332.5,804.7,2332.2,804.8,2331.9,804.8C2331.9,804.8,2331.9,804.8,2331.9,804.8z M2330.3,800
					C2330.3,800,2330.2,800,2330.3,800c-0.1,0-0.4,0-0.4,0.6c0,1.3,1.3,3.9,2,3.9c0,0,0,0,0,0c0.2,0,0.3-0.3,0.4-0.6
					C2332.1,802.8,2331.4,800,2330.3,800z"/>
			</g>
			<g>
				<path class="st24" d="M2295.7,815.8c-0.1,0-0.2-0.2-0.3-0.3c-0.1-0.2,0.1-0.5,0.3-0.5c0.1,0,3.2-1.2,5.4,1.9
					c0.1,0.2,0.1,0.5-0.1,0.6c-0.2,0.1-0.4,0.1-0.6-0.1c-1.8-1.6-4.4-1.6-4.5-1.6C2295.9,815.9,2295.8,815.9,2295.7,815.8z"/>
			</g>
			<path class="st24" d="M2297.5,820.8c-0.3,1-1.1,1.6-1.9,1.4c-0.7-0.2-1.1-1.2-0.8-2.2c0.3-1,1.1-1.6,1.9-1.4
				C2297.5,818.9,2297.8,819.9,2297.5,820.8z"/>
			<g>
				<path class="st24" d="M2279.7,813.2c-0.1,0-0.2-0.1-0.2-0.2c0-0.2,0.1-0.5,0.3-0.6c0.1-0.1,2.6-1.6,4.3,1.1
					c0.1,0.2,0.1,0.4-0.1,0.6c-0.2,0.2-0.3,0.1-0.5,0c-1.4-1.3-3.5-1-3.6-1C2279.9,813.2,2279.8,813.2,2279.7,813.2z"/>
			</g>
			<path class="st24" d="M2283.6,818c0.1,1-0.4,1.9-1.2,2c-0.7,0.1-1.4-0.7-1.5-1.7c-0.1-1,0.4-1.9,1.2-2
				C2282.8,816.2,2283.5,817,2283.6,818z"/>
			<g>
				<path class="st8" d="M2274.1,829.5c-2.7-1.8-4.5-5.7-4.8-10.3c-0.5-7.6,3-15.1,7.9-16.7c1.8-0.6,3.7-0.4,5.3,0.7
					c2.7,1.8,4.5,5.7,4.8,10.3c0.5,7.6-3,15.1-7.9,16.7c-0.6,0.2-1.3,0.3-1.9,0.3C2276.3,830.6,2275.2,830.2,2274.1,829.5z
					 M2277.5,803.3c-4.5,1.5-7.8,8.6-7.2,15.8c0.3,4.4,2,8,4.4,9.7c1.4,0.9,2.9,1.1,4.5,0.7c4.5-1.5,7.8-8.6,7.3-15.8
					c-0.3-4.4-2-8-4.4-9.6c-0.9-0.6-1.9-0.9-2.9-0.9C2278.5,803,2278,803.1,2277.5,803.3z"/>
			</g>
			<path class="st26" d="M2311.2,814.4c-0.1,7.3-4.4,14.1-9.7,15.2c-5.2,1.1-9.4-3.9-9.3-11.2c0.1-7.3,4.4-14.1,9.7-15.2
				C2307.1,802.1,2311.3,807.1,2311.2,814.4z"/>
			<path class="st26" d="M2287.3,814.1c-0.1,7.3-4.1,14.3-8.8,15.6c-4.8,1.3-8.5-3.5-8.4-10.8c0.1-7.3,4.1-14.3,8.8-15.6
				C2283.6,802,2287.4,806.8,2287.3,814.1z"/>
			<g>
				<path class="st8" d="M2294.9,828.1c-2.7-2.2-4.2-6-4.1-10.5c0.1-7.8,4.8-15.1,10.6-16.2c2.4-0.5,4.6,0.1,6.4,1.6
					c2.6,2.2,4.1,6,4.1,10.5l0,0c-0.1,7.8-4.8,15.1-10.6,16.2c-0.5,0.1-1.1,0.2-1.6,0.2C2297.9,829.8,2296.3,829.2,2294.9,828.1z
					 M2301.5,802.2c-5.4,1.1-9.8,8-9.9,15.3c0,4.2,1.4,7.9,3.8,9.8c1.6,1.4,3.6,1.8,5.6,1.4c5.4-1.1,9.8-8,9.9-15.4l0,0
					c0-4.2-1.4-7.8-3.8-9.8c-1.3-1-2.7-1.6-4.3-1.6C2302.5,802,2302,802.1,2301.5,802.2z"/>
			</g>
			<g>
				<path class="st8" d="M2292.8,816.9c0.3,0,0.6-0.2,0.8-0.5c0.2-0.4,0-0.9-0.4-1.1c-4.3-2-7.4-0.5-7.6-0.4
					c-0.4,0.2-0.6,0.7-0.4,1.1c0.2,0.4,0.7,0.6,1.1,0.4l0,0c0.2-0.1,2.7-1.2,6.1,0.4C2292.5,816.9,2292.7,816.9,2292.8,816.9z"/>
			</g>
			<g>
				<path class="st16" d="M2336.2,808.5c3.9-1.8,3-5.9,3-6l-0.5,0.1c0,0.2,0.8,3.8-2.7,5.5L2336.2,808.5z"/>
			</g>
			<g>
				<path class="st16" d="M2338.6,813.6l0.4-0.2c-0.1-0.1-1.9-3.1-4.1-3.6l-0.1,0.5C2336.8,810.7,2338.6,813.6,2338.6,813.6z"/>
			</g>
		</g>
		<path class="st8" d="M2285.2,830.5c0,0,6.6,1.8,13.8,1.1c0,0-1.1,6.6-8.3,5.3C2286.4,836.1,2285.2,830.5,2285.2,830.5z"/>
		<g>
			<path class="st34" d="M2114.5,959.4c0,0,4.1,79.4,24.5,88.4c20.4,9,134.4-20.3,138.2-30.8c3.8-10.5-18.7-91.8-18.7-91.8
				L2114.5,959.4z"/>
			<path class="st35" d="M2272.5,1050.4l-123.7,29.4c-13,3.1-26.7-2.1-34.2-13.2c-3.9-5.8-7.5-13.1-9.6-22.1
				c-32.7-137.5-4.9-197.7-4.9-197.7l121.2-30c0,0,44.5,64.7,60.3,111c13.2,38.7,23.4,67.7,25,85.1
				C2308.3,1031.9,2291,1046.1,2272.5,1050.4z"/>
			<g>
				<path class="st7" d="M2238.7,841.5c1.4,5.9-29.7,18.3-69.5,27.8s-73.2,12.3-74.6,6.4c-1.4-5.9,29.7-18.3,69.5-27.8
					S2237.3,835.6,2238.7,841.5z"/>
				
					<rect x="2089.3" y="829.7" transform="matrix(0.973 -0.2309 0.2309 0.973 -136.5204 522.4337)" class="st7" width="148.1" height="29.3"/>
			</g>
			<path class="st36" d="M2232,813c1.4,5.9-29.7,18.3-69.5,27.8c-39.8,9.4-73.2,12.3-74.6,6.4c-1.4-5.9,29.7-18.3,69.5-27.8
				S2230.6,807.1,2232,813z"/>
			
				<ellipse transform="matrix(0.973 -0.2309 0.2309 0.973 -158.5129 530.4475)" class="st8" cx="2186.6" cy="942.3" rx="74" ry="11"/>
			<g>
				<path class="st16" d="M2126.6,840.3c3,0,3-4.6,0-4.6C2123.6,835.7,2123.6,840.3,2126.6,840.3L2126.6,840.3z"/>
			</g>
			<g>
				<path class="st16" d="M2149,837c3,0,3-4.6,0-4.6C2146,832.4,2146,837,2149,837L2149,837z"/>
			</g>
			<g>
				<path class="st16" d="M2170.6,832.8c3,0,3-4.6,0-4.6C2167.7,828.2,2167.7,832.8,2170.6,832.8L2170.6,832.8z"/>
			</g>
			<g>
				<path class="st16" d="M2191.7,826.3c3,0,3-4.6,0-4.6C2188.8,821.7,2188.8,826.3,2191.7,826.3L2191.7,826.3z"/>
			</g>
			<g>
				<path class="st16" d="M2178.2,823.8c3,0,3-4.6,0-4.6C2175.3,819.2,2175.3,823.8,2178.2,823.8L2178.2,823.8z"/>
			</g>
			<g>
				<path class="st16" d="M2156.5,830.2c3,0,3-4.6,0-4.6C2153.5,825.6,2153.5,830.2,2156.5,830.2L2156.5,830.2z"/>
			</g>
			<g>
				<path class="st16" d="M2138.8,832.8c3,0,3-4.6,0-4.6C2135.9,828.2,2135.9,832.8,2138.8,832.8L2138.8,832.8z"/>
			</g>
		</g>
		<g>
			<g>
				<path class="st20" d="M2281.2,989.8l-3.5-10.8c-0.1-3.1,9.2-11.5,12.2-10.7c21.7,6.1,43,1.5,57.6-12.5
					c10.4-10,13.1-34.7,10.7-47.3c-1.2-6.4,1-10.7,8.8-14.9c0,0,6.7-3.7,15.1-5.1c3.3-0.6,6.6,0.8,7.5,4c1.3,5.1,3.1,13,3.9,22.3
					c2,22.1-2.3,41.3-12.4,55.5c-12.4,17.5-53.6,35.7-97.9,33C2279.9,1003.2,2281.2,993.1,2281.2,989.8z"/>
			</g>
			<g class="st37">
				<path class="st38" d="M2370.1,963.5c-0.9-0.7-1.5-1.9-1.7-3.2c-0.2-2.1,0.6-4.5,2.3-6.6c2.8-3.5,7-4.6,9.5-2.7
					c0.9,0.8,1.5,1.9,1.7,3.2c0.2,2.1-0.6,4.5-2.3,6.6l0,0c-1.9,2.3-4.4,3.6-6.6,3.6C2371.9,964.5,2370.9,964.2,2370.1,963.5z
					 M2378.5,959.9c1.4-1.7,2.1-3.8,1.9-5.5c-0.1-1-0.5-1.7-1.1-2.2c-1.8-1.4-5.1-0.3-7.4,2.4c-1.4,1.7-2.1,3.8-1.9,5.5
					c0.1,1,0.5,1.7,1.1,2.2C2372.8,963.8,2376.3,962.7,2378.5,959.9L2378.5,959.9z"/>
			</g>
			<g>
				<g>
					<path class="st20" d="M2289.9,968.3c0,0-5.5-16.5-14.9-20.5c-9.4-4-24.5-2.1-19.2,1.6c5.3,3.7,13.4,6.6,13.4,6.6
						s-17.6-5.4-17.1-0.8c0.5,4.6,15.8,9.2,15.8,9.2s-21.4-4.8-19.5-0.6c1.9,4.2,18.2,7.7,18.2,7.7s-20.1-3.7-17.8,1.2
						c2.3,4.8,16.6,2.9,17.2,7.6c0.5,4.6,4.1,22.8,17.2,23L2289.9,968.3z"/>
				</g>
				<g>
					<path class="st30" d="M2275.4,959.9l0.7-0.3c-1.4-3-6.7-3.9-6.9-3.9l-0.1,0.7C2269.2,956.4,2274.2,957.2,2275.4,959.9z"/>
				</g>
				<g>
					<path class="st30" d="M2275.5,969l0.6-0.5c-2.9-3.8-7.9-4.5-8.1-4.5l-0.1,0.7C2267.9,964.8,2272.9,965.5,2275.5,969z"/>
				</g>
				<g>
					<path class="st30" d="M2273.7,975.8l0.7-0.3c-1.3-3.3-7.4-4.3-7.7-4.3l-0.1,0.7C2266.6,972,2272.6,972.9,2273.7,975.8z"/>
				</g>
			</g>
		</g>
		<g>
			<path class="st20" d="M2082.6,964.9c0,0-0.1,11.6,9.3,11.5c12.1-0.1,32.2-21.8,6.7-14.8c-0.7,0.2,13.7-6.5,12-11
				c-1.3-3.4-14,0.8-14,0.8s14.7-7.2,13.9-11c-0.9-3.9-14.3,0.5-14.3,0.5s15.2-5.1,10.4-9.7c-2.6-2.5-16.3,2.2-21.6,3.8
				c-5.1,1.5-5.9,5.6-4.3,11c0,0-1.2,6.4,0.6,9.6c0.7,1.2-0.1,2.9,0,3.9C2081.6,961.5,2082.6,964.9,2082.6,964.9z"/>
		</g>
	</g>
	<g>
		<polygon class="st15" points="1564.7,1544 1391.8,1544.8 1414.8,1475.6 1589,1474.8 		"/>
		
			<ellipse transform="matrix(0.4166 -0.9091 0.9091 0.4166 -452.205 2314.1765)" class="st15" cx="1576.8" cy="1509.4" rx="37.3" ry="16.7"/>
		<g>
			<path class="st39" d="M1420.3,1492.3c-0.5,0-1-0.4-1-1c0-0.5,0.4-1,1-1l176-0.8c0,0,0,0,0,0c0.5,0,1,0.4,1,1c0,0.5-0.4,1-1,1
				L1420.3,1492.3C1420.3,1492.3,1420.3,1492.3,1420.3,1492.3z"/>
		</g>
		<g>
			<path class="st39" d="M1418,1481.6c-0.5,0-1-0.4-1-1c0-0.5,0.4-1,1-1l176-0.8c0,0,0,0,0,0c0.5,0,1,0.4,1,1c0,0.5-0.4,1-1,1
				L1418,1481.6C1418,1481.6,1418,1481.6,1418,1481.6z"/>
		</g>
		<g>
			<path class="st39" d="M1419.5,1503.1c-0.5,0-1-0.4-1-1c0-0.5,0.4-1,1-1l176-0.8c0,0,0,0,0,0c0.5,0,1,0.4,1,1c0,0.5-0.4,1-1,1
				L1419.5,1503.1C1419.5,1503.1,1419.5,1503.1,1419.5,1503.1z"/>
		</g>
		<g>
			<path class="st39" d="M1414.5,1517.3c-0.5,0-1-0.4-1-1c0-0.5,0.4-1,1-1l176-0.8c0,0,0,0,0,0c0.5,0,1,0.4,1,1c0,0.5-0.4,1-1,1
				L1414.5,1517.3C1414.5,1517.3,1414.5,1517.3,1414.5,1517.3z"/>
		</g>
		<g>
			<path class="st39" d="M1408,1528.4c-0.5,0-1-0.4-1-1c0-0.5,0.4-1,1-1l176-0.8c0,0,0,0,0,0c0.5,0,1,0.4,1,1c0,0.5-0.4,1-1,1
				L1408,1528.4C1408,1528.4,1408,1528.4,1408,1528.4z"/>
		</g>
		<g>
			<path class="st39" d="M1399.3,1539.2c-0.5,0-1-0.4-1-1c0-0.5,0.4-1,1-1l176-0.8c0,0,0,0,0,0c0.5,0,1,0.4,1,1c0,0.5-0.4,1-1,1
				L1399.3,1539.2C1399.3,1539.2,1399.3,1539.2,1399.3,1539.2z"/>
		</g>
		<path class="st40" d="M1421.9,1510.1c-4.7,13.5-12.9,25.3-20.8,31c-3.3,2.4-6.5,3.7-9.4,3.7c-10,0-12.6-15.4-5.9-34.6
			c6.7-19.1,20.2-34.7,30.2-34.7c4.9,0,8.1,3.7,9.2,9.8C1426.3,1491.6,1425.3,1500.4,1421.9,1510.1z"/>
		<path class="st41" d="M1421.9,1510.1c-4.7,13.5-12.9,25.3-20.8,31c-5.6-3.2,2.4-12.4,1.3-17.6c-1.4-6.5,13.3-11.4,13-22.4
			c-0.3-8.9,6.9-14,9.8-15.7C1426.3,1491.6,1425.3,1500.4,1421.9,1510.1z"/>
	</g>
	<g>
		<polygon class="st15" points="763.3,1555.7 590.3,1556.5 613.3,1487.3 787.5,1486.5 		"/>
		
			<ellipse transform="matrix(0.4166 -0.9091 0.9091 0.4166 -930.4574 1592.3798)" class="st15" cx="775.4" cy="1521.1" rx="37.3" ry="16.7"/>
		<g>
			<path class="st39" d="M618.9,1504c-0.5,0-1-0.4-1-1c0-0.5,0.4-1,1-1l176-0.8c0,0,0,0,0,0c0.5,0,1,0.4,1,1c0,0.5-0.4,1-1,1
				L618.9,1504C618.9,1504,618.9,1504,618.9,1504z"/>
		</g>
		<g>
			<path class="st39" d="M616.5,1493.3c-0.5,0-1-0.4-1-1c0-0.5,0.4-1,1-1l176-0.8c0,0,0,0,0,0c0.5,0,1,0.4,1,1c0,0.5-0.4,1-1,1
				L616.5,1493.3C616.5,1493.3,616.5,1493.3,616.5,1493.3z"/>
		</g>
		<g>
			<path class="st39" d="M618,1514.8c-0.5,0-1-0.4-1-1c0-0.5,0.4-1,1-1l176-0.8c0,0,0,0,0,0c0.5,0,1,0.4,1,1c0,0.5-0.4,1-1,1
				L618,1514.8C618,1514.8,618,1514.8,618,1514.8z"/>
		</g>
		<g>
			<path class="st39" d="M613,1529c-0.5,0-1-0.4-1-1c0-0.5,0.4-1,1-1l176-0.8c0,0,0,0,0,0c0.5,0,1,0.4,1,1c0,0.5-0.4,1-1,1L613,1529
				C613,1529,613,1529,613,1529z"/>
		</g>
		<g>
			<path class="st39" d="M606.5,1540.1c-0.5,0-1-0.4-1-1c0-0.5,0.4-1,1-1l176-0.8c0,0,0,0,0,0c0.5,0,1,0.4,1,1c0,0.5-0.4,1-1,1
				L606.5,1540.1C606.5,1540.1,606.5,1540.1,606.5,1540.1z"/>
		</g>
		<g>
			<path class="st39" d="M597.8,1550.9c-0.5,0-1-0.4-1-1c0-0.5,0.4-1,1-1l176-0.8c0,0,0,0,0,0c0.5,0,1,0.4,1,1c0,0.5-0.4,1-1,1
				L597.8,1550.9C597.8,1550.9,597.8,1550.9,597.8,1550.9z"/>
		</g>
		<path class="st40" d="M620.5,1521.8c-4.7,13.5-12.9,25.3-20.8,31c-3.3,2.4-6.5,3.7-9.4,3.7c-10,0-12.6-15.4-5.9-34.6
			c6.7-19.1,20.2-34.7,30.2-34.7c4.9,0,8.1,3.7,9.2,9.8C624.9,1503.3,623.9,1512.1,620.5,1521.8z"/>
		<path class="st41" d="M620.5,1521.8c-4.7,13.5-12.9,25.3-20.8,31c-5.6-3.2,2.4-12.4,1.3-17.6c-1.4-6.5,13.3-11.4,13-22.4
			c-0.3-8.9,6.9-14,9.8-15.7C624.9,1503.3,623.9,1512.1,620.5,1521.8z"/>
	</g>
	<g>
		<polygon class="st15" points="2027.2,1075.5 1891.7,1013.2 1932.2,960.9 2068.7,1023.7 		"/>
		
			<ellipse transform="matrix(0.6733 -0.7394 0.7394 0.6733 -106.9532 1857.1477)" class="st15" cx="2047.9" cy="1049.6" rx="33.5" ry="15"/>
		<g>
			<path class="st39" d="M2069.3,1041.1c-0.1,0-0.2,0-0.4-0.1L1931,977.6c-0.4-0.2-0.6-0.7-0.4-1.2c0.2-0.4,0.7-0.7,1.2-0.4
				l137.9,63.4c0.4,0.2,0.6,0.7,0.4,1.2C2070,1040.9,2069.7,1041.1,2069.3,1041.1z"/>
		</g>
		<g>
			<path class="st39" d="M2071,1030.8c-0.1,0-0.3,0-0.4-0.1l-137.9-63.4c-0.4-0.2-0.6-0.7-0.4-1.2c0.2-0.4,0.7-0.7,1.2-0.4
				l137.9,63.4c0.4,0.2,0.6,0.7,0.4,1.2C2071.7,1030.6,2071.3,1030.8,2071,1030.8z"/>
		</g>
		<g>
			<path class="st39" d="M2065.1,1050.2c-0.1,0-0.2,0-0.4-0.1l-137.9-63.4c-0.4-0.2-0.6-0.7-0.4-1.2c0.2-0.4,0.7-0.7,1.2-0.4
				l137.9,63.4c0.4,0.2,0.6,0.7,0.4,1.2C2065.8,1050,2065.5,1050.2,2065.1,1050.2z"/>
		</g>
		<g>
			<path class="st39" d="M2056.6,1060.8c-0.1,0-0.2,0-0.4-0.1l-137.9-63.4c-0.4-0.2-0.6-0.7-0.4-1.2c0.2-0.4,0.7-0.7,1.2-0.4
				l137.9,63.4c0.4,0.2,0.6,0.7,0.4,1.2C2057.3,1060.6,2057,1060.8,2056.6,1060.8z"/>
		</g>
		<g>
			<path class="st39" d="M2047.9,1068.2c-0.1,0-0.2,0-0.4-0.1l-137.9-63.4c-0.4-0.2-0.6-0.7-0.4-1.2c0.2-0.4,0.7-0.7,1.2-0.4
				l137.9,63.4c0.4,0.2,0.6,0.7,0.4,1.2C2048.6,1068,2048.3,1068.2,2047.9,1068.2z"/>
		</g>
		<g>
			<path class="st39" d="M2037.6,1074.4c-0.1,0-0.2,0-0.4-0.1l-137.9-63.4c-0.4-0.2-0.6-0.7-0.4-1.2c0.2-0.4,0.7-0.7,1.2-0.4
				l137.9,63.4c0.4,0.2,0.6,0.7,0.4,1.2C2038.3,1074.2,2037.9,1074.4,2037.6,1074.4z"/>
		</g>
		<path class="st40" d="M1926.6,993.8c-8.1,10.1-18.3,17.4-26.3,19.6c-3.3,0.9-6.3,0.9-8.6-0.2c-7.8-3.6-4.9-18.1,6.6-32.4
			c11.5-14.3,27.1-23,34.9-19.4c3.9,1.8,5.1,6.2,4,11.9C1936,979.2,1932.4,986.5,1926.6,993.8z"/>
		<path class="st41" d="M1926.6,993.8c-8.1,10.1-18.3,17.4-26.3,19.6c-3.4-4.9,5.9-10,6.7-15c1-6.2,14.1-5.1,17.4-14.9
			c2.7-7.9,10-9.8,12.7-10.2C1936,979.2,1932.4,986.5,1926.6,993.8z"/>
	</g>
	<g>
		<polygon class="st15" points="1382.8,499.9 1260.4,520.1 1264,465.2 1387.2,444.9 		"/>
		<path class="st15" d="M1397.8,470.3c-1.2,15.2-7.9,28.5-15,29.6c-7.1,1.2-11.8-10.2-10.6-25.4s7.9-28.5,15-29.6
			C1394.3,443.7,1399,455.1,1397.8,470.3z"/>
		<g>
			<path class="st39" d="M1395.8,456.6c-0.1,0.1-0.2,0.1-0.3,0.1l-124.6,20.6c-0.4,0.1-0.8-0.2-0.8-0.6s0.2-0.8,0.6-0.8l124.6-20.6
				c0.4-0.1,0.8,0.2,0.8,0.6C1396.1,456.1,1396,456.4,1395.8,456.6z"/>
		</g>
		<g>
			<path class="st39" d="M1392.1,448.7c-0.1,0.1-0.2,0.1-0.3,0.1l-124.6,20.6c-0.4,0.1-0.8-0.2-0.8-0.6c-0.1-0.4,0.2-0.8,0.6-0.8
				l124.6-20.6c0.4-0.1,0.8,0.2,0.8,0.6C1392.5,448.3,1392.4,448.5,1392.1,448.7z"/>
		</g>
		<g>
			<path class="st39" d="M1397.1,464.8c-0.1,0.1-0.2,0.1-0.3,0.1l-124.6,20.6c-0.4,0.1-0.8-0.2-0.8-0.6c-0.1-0.4,0.2-0.8,0.6-0.8
				l124.6-20.6c0.4-0.1,0.8,0.2,0.8,0.6C1397.5,464.4,1397.4,464.7,1397.1,464.8z"/>
		</g>
		<g>
			<path class="st39" d="M1396.3,476.1c-0.1,0.1-0.2,0.1-0.3,0.1l-124.6,20.6c-0.4,0.1-0.8-0.2-0.8-0.6c-0.1-0.4,0.2-0.8,0.6-0.8
				l124.6-20.6c0.4-0.1,0.8,0.2,0.8,0.6C1396.6,475.7,1396.5,475.9,1396.3,476.1z"/>
		</g>
		<g>
			<path class="st39" d="M1393.7,485.2c-0.1,0.1-0.2,0.1-0.3,0.1l-124.6,20.6c-0.4,0.1-0.8-0.2-0.8-0.6c-0.1-0.4,0.2-0.8,0.6-0.8
				l124.6-20.6c0.4-0.1,0.8,0.2,0.8,0.6C1394,484.8,1393.9,485.1,1393.7,485.2z"/>
		</g>
		<g>
			<path class="st39" d="M1389.5,494.3c-0.1,0.1-0.2,0.1-0.3,0.1L1264.6,515c-0.4,0.1-0.8-0.2-0.8-0.6c-0.1-0.4,0.2-0.8,0.6-0.8
				l124.6-20.6c0.4-0.1,0.8,0.2,0.8,0.6C1389.8,493.9,1389.7,494.2,1389.5,494.3z"/>
		</g>
		<path class="st40" d="M1275.4,490.5c-0.9,10.8-4.5,20.5-9,25.8c-1.9,2.2-3.9,3.5-6,3.9c-7.1,1.2-11.8-10.2-10.6-25.4
			c1.2-15.2,7.9-28.5,15-29.6c3.5-0.6,6.4,1.9,8.3,6.4C1275.1,476.1,1276,482.8,1275.4,490.5z"/>
		<path class="st41" d="M1275.4,490.5c-0.9,10.8-4.5,20.5-9,25.8c-4.6-1.8-0.6-9.6-2.3-13.4c-2.2-4.7,7.3-10.1,5.1-18.4
			c-1.8-6.7,2.3-11.4,4-12.9C1275.1,476.1,1276,482.8,1275.4,490.5z"/>
	</g>
	<g>
		<path class="st15" d="M1405.8,986c0,0-54.9-56.5-70.7-56.9c-10.7-0.3-75.4,4.1-75.4,4.1s1.2-20.3,11.8-29.7c0,0,0.3-8.3,3-17.5
			c2.4-8.2,6.8-17.1,14.6-21.4c0,0,0.3-21.8,16.1-31.1c0,0,38.2,66.2,45,69.6c9.9,5,78.5-19.5,85.2-17.9c6.7,1.6,3.3,28.4-9,37.1
			c0,0,1.1,9.4-1.9,20c-1.3,4.7-3.5,9.6-6.9,14C1417.6,956.3,1420.1,978.1,1405.8,986z"/>
		<path class="st40" d="M1405.8,986c0,0-54.9-56.5-70.7-56.9c-10.7-0.3-75.4,4.1-75.4,4.1s1.2-20.3,11.8-29.7c0,0,0.3-8.3,3-17.5
			c10.1,8.1,45.6,35.6,65.4,38.7c23.2,3.6,15,5.9,30.6,13.1c12.9,6,42,0.2,54.1,4.4c-1.3,4.7-3.5,9.6-6.9,14
			C1417.6,956.3,1420.1,978.1,1405.8,986z"/>
		<g>
			<path class="st40" d="M1299.3,863.3c14.9,18.5,31,43.6,55,50.6c20.1,5.9,45,6,65.3,0.6c3-0.8,2.1-5.6-0.9-4.8
				c-18.4,4.9-40.5,5-58.9,0.1c-24.4-6.4-41.4-30.6-56.7-49.7C1301.1,857.8,1297.4,860.9,1299.3,863.3L1299.3,863.3z"/>
		</g>
		<g>
			<path class="st40" d="M1286.8,885.8c32.2,31,73,45.6,117.1,49.1c3.1,0.2,3.5-4.6,0.4-4.8c-42.7-3.4-82.5-17.3-113.8-47.4
				C1288.3,880.6,1284.6,883.7,1286.8,885.8L1286.8,885.8z"/>
		</g>
	</g>
	<g>
		<path class="st15" d="M2278.2,1458.1c0,0-75.8-21.5-89.6-13.9c-9.4,5.1-63.3,41.2-63.3,41.2s-9.1-18.2-4.6-31.6
			c0,0-3.9-7.3-6.1-16.6c-2-8.3-2.7-18.2,2-25.8c0,0-10.6-19-1.6-35c0,0,66.1,38.3,73.8,37.8c11.1-0.6,58.3-56.2,64.8-58.1
			c6.6-1.9,17.1,22.9,10.7,36.6c0,0,5.7,7.6,8.3,18.3c1.2,4.7,1.8,10.1,1,15.6C2273.5,1426.5,2286.6,1444.2,2278.2,1458.1z"/>
		<path class="st40" d="M2278.2,1458.1c0,0-75.8-21.5-89.6-13.9c-9.4,5.1-63.3,41.2-63.3,41.2s-9.1-18.2-4.6-31.6
			c0,0-3.9-7.3-6.1-16.6c12.8,2,57.3,8,76,0.8c21.9-8.4,16-2.4,33-3.9c14.1-1.2,36.5-20.9,49-23.2c1.2,4.7,1.8,10.1,1,15.6
			C2273.5,1426.5,2286.6,1444.2,2278.2,1458.1z"/>
		<g>
			<path class="st40" d="M2124.6,1405.1c22.2,8.6,48.6,22.3,72.9,16.3c20.3-5,42-17.3,56.8-32.1c2.2-2.2-0.9-5.9-3.1-3.7
				c-13.5,13.4-32.5,24.5-51,29.6c-24.4,6.7-51.1-5.8-74-14.7C2123.4,1399.4,2121.7,1404,2124.6,1405.1L2124.6,1405.1z"/>
		</g>
		<g>
			<path class="st40" d="M2125,1430.8c43.4,10.8,86.1,3,126-16c2.8-1.3,0.7-5.7-2.1-4.4c-38.7,18.4-80.1,26.2-122.2,15.8
				C2123.7,1425.5,2122,1430.1,2125,1430.8L2125,1430.8z"/>
		</g>
	</g>
	<g>
		<path class="st15" d="M1786,1602.5c0,0-54.9-56.5-70.7-56.9c-10.7-0.3-75.4,4.1-75.4,4.1s1.2-20.3,11.8-29.7c0,0,0.3-8.3,3-17.5
			c2.4-8.2,6.8-17.1,14.6-21.4c0,0,0.3-21.8,16.1-31.1c0,0,38.2,66.2,45,69.6c9.9,5,78.5-19.5,85.2-17.9s3.3,28.4-9,37.1
			c0,0,1.1,9.4-1.9,20c-1.3,4.7-3.5,9.6-6.9,14C1797.8,1572.8,1800.2,1594.6,1786,1602.5z"/>
		<path class="st40" d="M1786,1602.5c0,0-54.9-56.5-70.7-56.9c-10.7-0.3-75.4,4.1-75.4,4.1s1.2-20.3,11.8-29.7c0,0,0.3-8.3,3-17.5
			c10.1,8.1,45.6,35.6,65.4,38.7c23.2,3.6,15,5.9,30.6,13.1c12.9,6,42,0.2,54.1,4.4c-1.3,4.7-3.5,9.6-6.9,14
			C1797.8,1572.8,1800.2,1594.6,1786,1602.5z"/>
		<g>
			<path class="st40" d="M1679.5,1479.8c14.9,18.5,31,43.6,55,50.6c20.1,5.9,45,6,65.3,0.6c3-0.8,2.1-5.6-0.9-4.8
				c-18.4,4.9-40.5,5-58.9,0.1c-24.4-6.4-41.4-30.6-56.7-49.7C1681.2,1474.3,1677.5,1477.4,1679.5,1479.8L1679.5,1479.8z"/>
		</g>
		<g>
			<path class="st40" d="M1666.9,1502.3c32.2,31,73,45.6,117.1,49.1c3.1,0.2,3.5-4.6,0.4-4.8c-42.7-3.4-82.5-17.3-113.8-47.4
				C1668.4,1497.1,1664.7,1500.2,1666.9,1502.3L1666.9,1502.3z"/>
		</g>
	</g>
	<path class="st0" d="M2010.4,404.5c0,0-13-25.1-46-21.9c-33,3.1-29.1,28.3-44.8,25.9c-15.7-2.4-37.7,0-42.4,15.7
		c-4.7,15.7-25.9,7.1-26.7,20.4c-0.8,13.4,24.3,22.8,53.4,11c29.1-11.8,43.2,9.2,84,5.4c40.8-3.8,45.9-8.5,70.1-6.1
		c24.2,2.4,23.6-14.2,12.6-25.2C2059.6,418.6,2015.1,419.7,2010.4,404.5z"/>
	<path class="st0" d="M984.3,466.3c0,0-14.6-28-51.6-24.5c-37,3.5-32.6,31.6-50.2,29c-17.6-2.6-42.3,0-47.5,17.5
		c-5.3,17.5-29.1,7.9-29.9,22.8c-0.9,14.9,27.3,25.4,59.9,12.3c32.6-13.2,48.4,10.2,94.2,6c45.8-4.2,51.5-9.5,78.6-6.9
		c27.1,2.6,26.5-15.9,14.1-28.1C1039.5,482,989.6,483.2,984.3,466.3z"/>
	<g>
		<path class="st40" d="M599.5,1056.2l407.7,120.2l-91.7-157.8C915.5,1018.7,731.3,966.3,599.5,1056.2z"/>
		<path class="st15" d="M960.4,1258.9c0,23.8,19.3,43.1,43.1,43.1c1.3,0,2.5-0.1,3.8-0.2v100.7c-15,0-27.2,12.2-27.2,27.2
			c0,15,12.2,27.2,27.2,27.2v43.8l-407.7-103.7v-340.8l407.7,120.2v39.6c-1.3-0.1-2.5-0.2-3.8-0.2
			C979.7,1215.9,960.4,1235.1,960.4,1258.9z"/>
		<circle class="st40" cx="893" cy="1233.5" r="39.6"/>
		<circle class="st40" cx="674.2" cy="1290.5" r="39.6"/>
		
			<ellipse transform="matrix(0.306 -0.952 0.952 0.306 -751.8889 1552.4802)" class="st42" cx="688.9" cy="1292" rx="31.6" ry="31.6"/>
		<circle class="st42" cx="891.6" cy="1242.1" r="43.1"/>
		<circle class="st40" cx="779.8" cy="1370.8" r="30"/>
		
			<ellipse transform="matrix(0.1212 -0.9926 0.9926 0.1212 -667.0449 1971.1824)" class="st42" cx="779.8" cy="1362.3" rx="32.6" ry="32.6"/>
		<circle class="st40" cx="908.4" cy="1360.7" r="35.4"/>
		
			<ellipse transform="matrix(9.397358e-02 -0.9956 0.9956 9.397358e-02 -539.2168 2143.0396)" class="st42" cx="907.8" cy="1367.8" rx="38.5" ry="38.5"/>
		
			<ellipse transform="matrix(0.7071 -0.7071 0.7071 0.7071 -641.7224 917.5541)" class="st40" cx="786.7" cy="1233.4" rx="27.5" ry="27.5"/>
		
			<ellipse transform="matrix(0.9628 -0.2702 0.2702 0.9628 -305.346 255.491)" class="st42" cx="775.2" cy="1236.6" rx="29.9" ry="29.9"/>
		
			<ellipse transform="matrix(0.9007 -0.4345 0.4345 0.9007 -434.4601 416.05)" class="st40" cx="692.7" cy="1158.2" rx="32" ry="32"/>
		
			<ellipse transform="matrix(0.7701 -0.6379 0.6379 0.7701 -585.0647 700.3423)" class="st42" cx="679.2" cy="1162" rx="34.8" ry="34.8"/>
	</g>
	<path class="st43" d="M934.9,1102.3c0,0-34.5-62.2-53.1-71.6c-18.6-9.4-70.7-8.8-72.5-1.1c-1.7,7.7,59.2,24.4,79.3,46.9
		C908.9,1098.9,944.7,1118.6,934.9,1102.3z"/>
	<g>
		<path class="st15" d="M1286.1,666.9c-1.8,0-3.5-0.9-4.5-2.5L1032.2,272c-1.6-2.5-0.8-5.8,1.7-7.4c2.5-1.6,5.8-0.8,7.4,1.7
			l249.4,392.4c1.6,2.5,0.8,5.8-1.7,7.4C1288.1,666.7,1287.1,666.9,1286.1,666.9z"/>
	</g>
	<path class="st9" d="M1587.7,677.5l59.2-4.7l-1,14.9c0,0-14.3,3.7-14.8,3.5c-0.5-0.2-41-1.8-41-1.8L1587.7,677.5z"/>
	
		<ellipse transform="matrix(0.9239 -0.3827 0.3827 0.9239 -140.2344 554.5338)" class="st8" cx="1323.8" cy="629.8" rx="29.7" ry="29.7"/>
	
		<ellipse transform="matrix(0.9239 -0.3827 0.3827 0.9239 -142.7225 571.4833)" class="st8" cx="1365.2" cy="644.5" rx="26" ry="26"/>
	
		<ellipse transform="matrix(0.9239 -0.3827 0.3827 0.9239 -131.6696 608.7092)" class="st8" cx="1464.3" cy="635.3" rx="35.2" ry="35.2"/>
	
		<ellipse transform="matrix(0.2298 -0.9732 0.9732 0.2298 241.778 1576.1566)" class="st8" cx="1116.7" cy="635.3" rx="30.9" ry="30.9"/>
	<ellipse class="st8" cx="1243.4" cy="659.4" rx="58" ry="20.1"/>
	<ellipse class="st8" cx="1516.3" cy="644.5" rx="23.6" ry="20.1"/>
	<ellipse class="st8" cx="1036.7" cy="639.4" rx="23.6" ry="20.1"/>
	<ellipse class="st8" cx="1070.6" cy="649.8" rx="23.6" ry="20.1"/>
	<ellipse class="st8" cx="1008.8" cy="648" rx="15" ry="12.7"/>
	<g>
		<g>
			<g>
				<g>
					<path class="st20" d="M614.5,713c-0.4,1.5-0.8,2.8-1.1,3.7c-0.2,0.8-0.5,1.5-0.8,2.1c-4.1,11.5-8.7,18.3-8.7,18.3
						s-25.7-1.4-26.9-3.7c-2.6-5.4-5.2-17.1-7.7-22.5c-1.1-2.3-4.1-10.5-1.9-11.9c1.9-1.2,7.4,4.1,9.8,6.9
						c3.1-16.8,9.2-44.5,11.2-4.3c0,0,0,0,0.1,0c0.7-3.6,4.4-27.9,8.8-25.1c3.9,2.5,2,21.3,0.8,27.2c0.1,0,0.1,0,0.2,0
						c1.7-5.9,5.5-22.8,8.4-19.3c3.6,4.5,2.1,23.1,2.1,23.1s3.9-15.4,6.8-12.4C618.2,697.9,616.5,706,614.5,713L614.5,713
						C614.5,713,614.5,713,614.5,713z"/>
					<g>
						<path class="st20" d="M576.5,729.9c-7.7,39.8-23.4,97.4-47.2,141c-5.5,10.1-7.8,13.9-11.8,19.3c-3.3,4.4,0.7,15,8.1,20.7
							c6.9,5.3,16.6,5.2,21.5,0.7c3.7-3.4,6.6-7.6,12.9-18.8C582,854,595.8,799.1,606.9,732L576.5,729.9z"/>
					</g>
					<g>
						<path class="st38" d="M593,731.2c0.2,0,0.4-0.2,0.5-0.4c0-0.1,1-5.3-3.5-7.8c-4.1-2.3-8.1-7.1-8.2-7.2
							c-0.2-0.2-0.5-0.2-0.7-0.1c-0.2,0.2-0.2,0.5-0.1,0.7c0.2,0.2,4.2,5,8.4,7.4c3.8,2.2,3,6.6,3,6.8
							C592.5,730.9,592.7,731.2,593,731.2C593,731.2,593,731.2,593,731.2z"/>
					</g>
				</g>
				<path class="st16" d="M506.3,1342.8c0,0,0.3,12,8.5,15.3c8.2,3.4,31.8,6.4,23,14.1c-5.1,4.4-28.9,1.6-35.7,1.6
					c-6.7,0-13.1,2.9-18.1-1.6c-5.5-4.9,0-29.4,0-29.4s5.8,3,11,2.9C502.5,1345.5,506.3,1342.8,506.3,1342.8z"/>
				<path class="st16" d="M412.6,1342.8c0,0,0.3,12,8.5,15.3c8.2,3.4,31.8,6.4,23,14.1c-5.1,4.4-28.9,1.6-35.7,1.6
					c-6.7,0-13.1,2.9-18.1-1.6c-5.5-4.9,0-29.4,0-29.4s5.8,3,11,2.9C408.9,1345.5,412.6,1342.8,412.6,1342.8z"/>
				<path class="st27" d="M566.9,1014.9c0,0,1.5,50.1-14.6,146.1c-11.6,69.3-25.4,139.2-32.1,172.7c-2.4,12-12.6,20.7-24.6,21.2
					l-6.5,0.3c-13,0.5-23.6-10.6-22.6-23.8l16.3-226.6l4-74.6L566.9,1014.9z"/>
				<path class="st16" d="M419.6,1058.9c0.7,6.1,35.5,5.4,78,0s75.6-14.5,74.9-20.6c-0.7-6.1-35-6.8-77.6-1.5
					C452.4,1042.2,418.9,1052.8,419.6,1058.9z"/>
				<path class="st27" d="M518.1,1050.6L427.3,1340c-3.8,12.1-14.8,20.4-27.3,20.6l-5.5,0.1c-12.9,0.2-22.7-11.6-20.4-24.5
					l49.7-271.9c0.7-3.2,3.1-5.8,6.3-6.7C447.1,1052.8,519.8,1038.7,518.1,1050.6z"/>
				<path class="st44" d="M433.8,892.3c0,0,12.1-33.7,55.1-32.2c43,1.5,75.5,57.6,83.6,178.2c0,0-70.4-15.3-153,20.4
					C419.5,1058.8,414.9,941.5,433.8,892.3z"/>
				<path class="st44" d="M435.3,850l4.4,64.9c0,0,92.4,19.9,107,4.6c38.5-40.2-2.1-81-2.1-81s-22.9,26.4-44.8,22.7
					c-3.5-0.6-7.1-0.7-10.9-1c-6.4-0.4-10.7,0.3-17,0.1C448.1,859.6,435.3,850,435.3,850z"/>
				<g>
					<path class="st21" d="M477.5,1180l19.5-58.9c4.4-13.2,13.4-24.3,25.4-31.1l-0.8-1.3c-12.3,7-21.6,18.4-26.1,32l-19.5,58.9
						L477.5,1180z"/>
				</g>
				<g>
					<g>
						<path class="st12" d="M518.4,852.6c0.2-0.1,5.8-1.4,7.4-5.4c0.9-2.1,0.5-4.5-1.2-7.1c-0.7-1.2-1.4-2.3-2-3.2
							c-4.3-6.8-5.8-9.1-4.6-14.4l-0.5-0.1c-1.2,5.5,0.4,8.1,4.7,14.8c0.6,1,1.3,2.1,2,3.2c1.6,2.5,1.9,4.7,1.2,6.7
							c-1.5,3.7-7,5-7.1,5.1L518.4,852.6z"/>
					</g>
					<path class="st12" d="M517.7,822.4c0,0-1.9,8.6,3.8,17.5c5.7,9-0.5,15.5-8.2,12.1c-7.7-3.4-10.7,6.4-20.6,0.9
						C482.8,847.5,517.7,822.4,517.7,822.4z"/>
					<path class="st20" d="M472,860.3c4.3-0.5,8-3.1,9.7-7l5.3-12.3l1.5-3.6l9.1-21l-1.6,21.7l-0.9,13l-0.3,3.7
						c-0.2,3,1.9,5.7,4.9,6.3l0.1,0c1.6,2.6,3.9,7.9-2.8,10C489.2,873.7,476.5,867.5,472,860.3C471.9,860.3,472,860.3,472,860.3z"/>
					<path class="st16" d="M487,840.6c0,0.1,0,0.2,0,0.4c0.5,7,8.1,10.3,8.1,10.3l0,0l0.9-13c-2.3-0.8-5.6-1.7-7.5-0.8
						C487.6,837.9,486.9,838.8,487,840.6z"/>
					<ellipse class="st20" cx="498.7" cy="819.9" rx="20.6" ry="25.2"/>
					<path class="st20" d="M480.8,823.7c2.3,2.2,5.6,2.4,7.3,0.5c1.7-1.9,1.2-5.3-1.2-7.5c-2.3-2.2-5.6-2.4-7.3-0.5
						C478,818.1,478.5,821.5,480.8,823.7z"/>
					<path class="st23" d="M509.7,836.2c0,0-7,0.2-14.1-2.3c0,0-0.6,6.9,7,7.3C507.1,841.5,509.7,836.2,509.7,836.2z"/>
					<path class="st8" d="M509.7,836.2c0,0-1.7,1.4-5.7,1.4c-4,0-8.4-3.7-8.4-3.7S504.1,836.2,509.7,836.2z"/>
					<g>
						<path class="st24" d="M500.6,820.1c0.1,0,0.3-0.1,0.3-0.3c0.1-0.2,0-0.5-0.3-0.6c-0.1-0.1-3.3-1.7-6.1,1.3
							c-0.2,0.2-0.2,0.5,0,0.7c0.2,0.2,0.4,0.1,0.7,0c2.1-1.4,4.9-1.2,5-1.1C500.4,820.1,500.6,820.1,500.6,820.1z"/>
					</g>
					<path class="st24" d="M496.9,825.2c0,1.1,0.6,2,1.4,2.1c0.8,0,1.5-0.9,1.5-2c0-1.1-0.6-2-1.4-2.1
						C497.7,823.2,497,824.1,496.9,825.2z"/>
					<g>
						<path class="st24" d="M517.3,822.5c0.1,0,0.3,0,0.4-0.1c0.2-0.2,0.2-0.5,0-0.7c-0.1-0.1-2.4-2.8-6.1-1.1
							c-0.2,0.1-0.3,0.4-0.2,0.6c0.1,0.2,0.4,0.3,0.6,0.2c2.5-0.5,5,0.8,5.1,0.9C517.2,822.5,517.3,822.5,517.3,822.5z"/>
					</g>
					<path class="st24" d="M512,825.9c-0.5,1-0.2,2.1,0.5,2.4c0.7,0.3,1.7-0.2,2.2-1.2s0.2-2.1-0.5-2.4
						C513.4,824.3,512.4,824.9,512,825.9z"/>
					<path class="st12" d="M507.4,799.3c0,0-0.4,8.7-11.4,10.2c-11,1.5-18.6,6.1-17.1,14c1.5,7.9,19.2,24.2,6.2,30.5
						c-13,6.3-10.3-5.5-24.4-2.7c-14.1,2.7-16.7-16-6.9-26.9s5.8-39.6,42.3-38.3c36.5,1.3,23.1,30.2,23.1,30.2
						S507.4,808.9,507.4,799.3z"/>
					<g>
						<path class="st8" d="M481.3,855.6c2.7-1.1,4.4-2.7,5-4.9c1.6-5.9-5.3-14.7-11.4-22.5c-1.6-2.1-3.1-4-4.4-5.8
							c-3.7-5.1-4-11-0.9-15.7c3.5-5.2,10.1-7.5,17.4-5.8c13.7,3.2,19.5-5.1,19.6-5.2l-0.2-0.2c-0.1,0.1-5.8,8.2-19.3,5.1
							c-7.4-1.6-14.1,0.6-17.7,5.9c-3.2,4.8-2.9,10.8,0.9,16c1.3,1.9,2.8,3.8,4.4,5.8c6,7.8,12.9,16.6,11.3,22.3
							c-0.6,2.1-2.1,3.6-4.8,4.7L481.3,855.6z"/>
					</g>
					<g>
						<path class="st25" d="M515.9,839.1c-1.1,0-2.2-0.3-3.1-0.9c-4.4-2.7-6.1-11-3.7-18.4l0,0c1.5-4.5,4.2-7.9,7.3-9
							c1.8-0.7,3.7-0.5,5.3,0.5c4.4,2.7,6.1,11,3.7,18.4c-1.5,4.5-4.2,7.9-7.3,9.1C517.4,838.9,516.6,839.1,515.9,839.1z
							 M509.9,820.1c-2.3,7-0.8,14.8,3.3,17.3c1.4,0.9,3,1,4.5,0.4c2.8-1,5.3-4.2,6.7-8.5c2.3-7,0.8-14.8-3.3-17.3
							c-1.4-0.9-3-1-4.5-0.4C513.8,812.6,511.3,815.8,509.9,820.1L509.9,820.1z"/>
					</g>
					
						<ellipse transform="matrix(1.401278e-02 -0.9999 0.9999 1.401278e-02 -331.8949 1301.7869)" class="st26" cx="494.1" cy="819.2" rx="13.7" ry="9.4"/>
					<path class="st26" d="M508.9,820.4c-1.7,7.2,0.5,15.1,4.9,17.5c4.4,2.4,9.3-1.4,10.9-8.7c1.7-7.2-0.5-15.1-4.9-17.5
						C515.4,809.3,510.5,813.1,508.9,820.4z"/>
					<g>
						<path class="st25" d="M494.6,833.1c-1.1,0-2.2-0.2-3.3-0.8c-5.4-2.5-8.3-10.8-6.5-18.5l0,0c1-4.5,3.4-7.9,6.6-9.4
							c2.2-1.1,4.5-1.1,6.7-0.1c5.4,2.5,8.3,10.8,6.5,18.5c-1,4.5-3.5,7.9-6.6,9.4C496.9,832.8,495.7,833.1,494.6,833.1z
							 M494.8,804.5c-1,0-2,0.2-3,0.7c-2.9,1.4-5.2,4.7-6.1,8.8l0,0c-1.7,7.3,1,15.1,6,17.5c1.9,0.9,3.9,0.9,5.9,0
							c2.9-1.4,5.2-4.7,6.1-8.8c1.7-7.3-1-15.1-6-17.5C496.7,804.7,495.8,804.5,494.8,804.5z"/>
					</g>
					<g>
						<path class="st25" d="M509.8,823.1c-0.2,0-0.4-0.1-0.5-0.2l0,0c-0.1-0.1-2.3-1.8-6.1-1.1c-0.4,0.1-0.9-0.2-1-0.7
							c-0.1-0.5,0.2-0.9,0.7-1c4.6-1,7.4,1.3,7.6,1.4c0.4,0.3,0.4,0.8,0.1,1.2C510.3,823,510.1,823.1,509.8,823.1z"/>
					</g>
				</g>
				<path class="st27" d="M453.8,1052.3c0,0,84.9-16.1,112.4-8.5l-13.2,19.4l-49,2.8L453.8,1052.3z"/>
				<path class="st44" d="M429.7,848c0,0,1.7,36.5-26.1,50.1c0,0,17.9,31.7,16,94.8l47.7-58.7l2.1-52.3L429.7,848z"/>
				<path class="st16" d="M435.3,850c7.1,11.3-14.7,60.1-31.7,48.1C394.3,891.6,429.8,841.2,435.3,850z"/>
				<g>
					<path class="st20" d="M352.7,706.2c0.4,1.5,0.8,2.8,1.1,3.7c0.2,0.8,0.5,1.5,0.8,2.1c4.1,11.5,8.7,18.3,8.7,18.3
						s25.7-1.4,26.9-3.7c2.6-5.4,5.2-17.1,7.7-22.5c1.1-2.3,4.1-10.5,1.9-11.9c-1.9-1.2-7.4,4.1-9.8,6.9
						c-3.1-16.8-9.2-44.5-11.2-4.3c0,0,0,0-0.1,0c-0.7-3.6-4.4-27.9-8.8-25.1c-3.9,2.5-2,21.3-0.8,27.2c-0.1,0-0.1,0-0.2,0
						c-1.7-5.9-5.5-22.8-8.4-19.3c-3.6,4.5-2.1,23.1-2.1,23.1s-3.9-15.4-6.8-12.4C349,691,350.7,699.2,352.7,706.2L352.7,706.2
						C352.7,706.2,352.7,706.2,352.7,706.2z"/>
					<g>
						<path class="st20" d="M360.3,725.2c11.1,67.1,25,122,46.9,160.8c0.4,0.7,0.8,1.4,1.2,2.1c1.1,2,3.5,2.8,5.6,2
							c15.4-6.1,19-22.8,19.9-32c0.1-1-0.1-2-0.6-2.9c-21.2-42.3-35.3-94.9-42.5-132.1c0,0,0,0,0,0L360.3,725.2L360.3,725.2z"/>
					</g>
					<g>
						<path class="st38" d="M374.2,724.4C374.2,724.4,374.3,724.4,374.2,724.4c0.3-0.1,0.5-0.3,0.5-0.6c0-0.2-0.8-4.7,3-6.8
							c4.2-2.4,8.3-7.2,8.4-7.4c0.2-0.2,0.1-0.5-0.1-0.7c-0.2-0.2-0.5-0.1-0.7,0.1c0,0-4.1,4.9-8.2,7.2c-4.4,2.5-3.5,7.8-3.4,7.8
							C373.8,724.2,374,724.4,374.2,724.4z"/>
					</g>
				</g>
			</g>
		</g>
		<g>
			<path class="st15" d="M355,705.6c0,0,126.9-23.5,148.6-10.3c14.7,8.9,98.3,70.4,98.3,70.4s17.3-26.6,11.7-47.5
				c0,0,7.3-10.7,12.2-24.5c4.4-12.4,6.8-27.4,0.2-39.5c0,0,19.9-27.6,7.2-53c0,0-113.3,50.1-125.8,48.5
				c-18-2.3-88.1-92.4-98.6-96.2c-10.5-3.7-31,32.8-22.3,54.3c0,0-10.3,10.9-16,26.7c-2.6,7.1-4.2,15.1-3.7,23.6
				C366.7,658.1,343.1,683.4,355,705.6z"/>
			<path class="st40" d="M355,705.6c0,0,126.9-23.5,148.6-10.3c14.7,8.9,98.3,70.4,98.3,70.4s17.3-26.6,11.7-47.5
				c0,0,7.3-10.7,12.2-24.5c-21.3,1.4-94.9,5.2-124.5-7.9c-34.8-15.5-25.8-5.6-53.6-9.9c-23-3.6-57-36.1-77.3-41.3
				c-2.6,7.1-4.2,15.1-3.7,23.6C366.7,658.1,343.1,683.4,355,705.6z"/>
			<g>
				<path class="st40" d="M613.4,643.7c-37.5,10.4-82.6,27.9-121.5,16c-32.7-10-66.5-31.4-88.9-55.7c-3.3-3.6,2.3-8.8,5.6-5.2
					c20.3,22,50.1,41.2,79.6,51.1c39.1,13.1,84.5-2.6,123-13.3C616.2,635.2,618.3,642.3,613.4,643.7L613.4,643.7z"/>
			</g>
			<g>
				<path class="st40" d="M609.4,682.7c-72.5,11.1-141.4-5.9-204.3-39.5c-4.4-2.4-0.4-8.8,4-6.4c61,32.7,127.8,49.6,198.1,38.8
					C612.3,674.9,614.5,682,609.4,682.7L609.4,682.7z"/>
			</g>
		</g>
	</g>
</g>
</svg>
